M48
; DRILL file {KiCad (5.99.0-10407-g1e8b23402c)} date Sat Jul 10 11:35:10 2021
; FORMAT={-:-/ absolute / inch / decimal}
; #@! TF.CreationDate,2021-07-10T11:35:10-06:00
; #@! TF.GenerationSoftware,Kicad,Pcbnew,(5.99.0-10407-g1e8b23402c)
; #@! TF.FileFunction,MixedPlating,1,4
FMAT,2
INCH
; #@! TA.AperFunction,Plated,PTH,ViaDrill
T1C0.0157
; #@! TA.AperFunction,Plated,PTH,ComponentDrill
T2C0.0394
; #@! TA.AperFunction,NonPlated,NPTH,ComponentDrill
T3C0.0354
; #@! TA.AperFunction,NonPlated,NPTH,ComponentDrill
T4C0.0433
; #@! TA.AperFunction,NonPlated,NPTH,ComponentDrill
T5C0.0630
; #@! TA.AperFunction,NonPlated,NPTH,ComponentDrill
T6C0.1063
%
G90
G05
T1
X0.8268Y-2.0157
X0.8307Y-2.7205
X0.9055Y-2.1654
X0.9055Y-2.2441
X0.9055Y-2.3228
X0.9055Y-2.4016
X0.9055Y-2.8268
X0.9087Y-2.4711
X0.9646Y-1.811
X0.9843Y-1.3937
X0.9843Y-1.7126
X0.9843Y-2.7913
X0.9843Y-2.9528
X0.9921Y-1.7835
X0.9921Y-2.0
X1.0394Y-2.4685
X1.0443Y-1.3287
X1.0827Y-2.9528
X1.1024Y-1.9291
X1.124Y-2.0374
X1.1496Y-2.063
X1.1614Y-0.8858
X1.1752Y-2.0886
X1.1811Y-1.5748
X1.1811Y-1.6732
X1.1811Y-2.9528
X1.1909Y-2.5689
X1.2008Y-2.1142
X1.2047Y-2.1496
X1.2047Y-2.5157
X1.2205Y-2.6496
X1.2244Y-1.9882
X1.2441Y-1.6378
X1.2795Y-1.378
X1.2795Y-1.5748
X1.2795Y-2.4606
X1.2795Y-2.9528
X1.2894Y-1.6634
X1.3346Y-1.622
X1.3465Y-2.5551
X1.3681Y-2.4409
X1.378Y-1.378
X1.378Y-2.3622
X1.378Y-2.9528
X1.3858Y-2.5512
X1.3976Y-2.4764
X1.4075Y-2.5197
X1.4134Y-1.437
X1.4252Y-2.4449
X1.4528Y-2.6811
X1.4606Y-2.4646
X1.4606Y-2.7717
X1.4646Y-2.4252
X1.4685Y-2.8386
X1.4764Y-0.9843
X1.4764Y-1.378
X1.4764Y-1.6732
X1.4764Y-1.7717
X1.4764Y-2.9528
X1.4803Y-2.6457
X1.5276Y-2.2047
X1.5276Y-2.3976
X1.5551Y-2.3622
X1.5551Y-2.6299
X1.5551Y-2.6732
X1.5748Y-0.8858
X1.5748Y-1.378
X1.5748Y-1.6732
X1.5748Y-2.0669
X1.5748Y-2.126
X1.5748Y-2.7559
X1.5748Y-2.9528
X1.5945Y-2.1654
X1.5945Y-2.626
X1.6066Y-1.1029
X1.626Y-2.5984
X1.6314Y-1.0782
X1.6535Y-2.5197
X1.6614Y-2.5748
X1.6732Y-2.7559
X1.6732Y-2.9528
X1.6857Y-0.9194
X1.6884Y-0.9915
X1.7105Y-0.9442
X1.7132Y-1.0163
X1.7323Y-2.5984
X1.7362Y-1.1378
X1.752Y-1.0728
X1.7559Y-1.6378
X1.7598Y-1.0157
X1.7717Y-1.6024
X1.7717Y-1.8701
X1.7717Y-1.9685
X1.7717Y-2.0669
X1.7717Y-2.1654
X1.7717Y-2.9528
X1.7808Y-1.3456
X1.7874Y-1.4921
X1.7908Y-2.5703
X1.7953Y-1.4291
X1.7955Y-2.3354
X1.7992Y-1.5709
X1.8012Y-1.0236
X1.8056Y-1.3704
X1.8114Y-1.15
X1.8155Y-2.5951
X1.8305Y-2.3354
X1.8504Y-2.7165
X1.8563Y-2.8681
X1.8577Y-2.5951
X1.8622Y-1.4134
X1.8701Y-1.5157
X1.8701Y-1.7717
X1.8701Y-1.8701
X1.8701Y-1.9685
X1.8701Y-2.0669
X1.8701Y-2.1654
X1.8825Y-2.5703
X1.8839Y-1.1394
X1.8919Y-2.2463
X1.8937Y-2.8858
X1.9252Y-2.9134
X1.927Y-2.2463
X1.9488Y-1.122
X1.9528Y-2.9409
X1.9646Y-2.7205
X1.9685Y-0.8858
X1.9685Y-1.6732
X1.9685Y-1.8701
X1.9685Y-1.9685
X1.9685Y-2.0669
X1.9685Y-2.1654
X1.9961Y-2.3583
X1.998Y-1.122
X2.0433Y-1.8583
X2.0472Y-1.122
X2.0472Y-2.3346
X2.0669Y-0.9843
X2.0669Y-1.6732
X2.0669Y-1.7717
X2.1063Y-1.122
X2.1063Y-2.3504
X2.1063Y-2.5591
X2.1339Y-1.4134
X2.1339Y-1.6535
X2.1339Y-1.7717
X2.1339Y-1.8898
X2.1358Y-1.5157
X2.1457Y-2.0118
X2.1476Y-2.7244
X2.1654Y-0.8858
X2.1654Y-2.6772
X2.189Y-2.7638
X2.2047Y-0.8268
X2.2047Y-2.6378
X2.2047Y-2.7087
X2.2205Y-1.1142
X2.2323Y-2.7638
X2.2677Y-1.4252
X2.2717Y-1.5433
X2.2717Y-2.2126
X2.2717Y-2.7638
X2.311Y-2.7638
X2.3228Y-0.8268
X2.3228Y-0.9921
X2.3228Y-1.4094
X2.3228Y-2.8091
X2.3268Y-2.6004
X2.3307Y-2.6969
X2.3543Y-2.7638
X2.3622Y-1.4843
X2.3622Y-2.6575
X2.3661Y-1.9409
X2.3701Y-2.5748
X2.4094Y-1.6693
X2.4134Y-2.0472
X2.4252Y-2.5748
X2.435Y-2.8051
X2.437Y-1.4055
X2.4409Y-0.8268
X2.4409Y-1.5787
X2.4488Y-1.0079
X2.4488Y-2.1575
X2.4606Y-2.6575
X2.4606Y-2.7559
X2.4646Y-2.5748
X2.4685Y-2.0472
X2.4764Y-1.8937
X2.4882Y-2.3543
X2.5118Y-1.7047
X2.5157Y-2.622
X2.5236Y-2.3346
X2.5276Y-1.622
X2.5354Y-1.4921
X2.5433Y-1.0276
X2.5433Y-1.7283
X2.5472Y-1.2205
X2.5591Y-0.8268
X2.563Y-2.0551
X2.5709Y-1.622
X2.5709Y-2.6299
X2.5748Y-1.7559
X2.5787Y-2.0118
X2.5787Y-2.7087
X2.5827Y-1.0276
X2.5827Y-2.8898
X2.6102Y-1.622
X2.626Y-1.4921
X2.6496Y-1.622
X2.6575Y-1.9685
X2.6575Y-2.2638
X2.6575Y-2.3622
X2.6772Y-0.8268
X2.6772Y-2.6654
X2.6969Y-1.1102
X2.7067Y-2.7559
X2.7244Y-2.1575
X2.7303Y-2.6201
X2.7362Y-1.2894
X2.7461Y-1.4646
X2.748Y-1.9685
X2.7559Y-2.2638
X2.7559Y-2.3622
X2.7835Y-2.7028
X2.7854Y-1.2303
X2.7874Y-2.1575
X2.7953Y-0.8268
X2.8189Y-1.2795
X2.8465Y-1.2441
X2.8543Y-2.8228
X2.878Y-1.2638
X2.8907Y-1.6644
X2.8976Y-2.6516
X2.9016Y-2.6929
X2.9094Y-1.2913
X2.9134Y-0.8268
X2.9173Y-1.6378
X2.937Y-2.7303
X2.9409Y-1.6142
X2.9469Y-2.6929
X2.9528Y-1.2913
X2.9528Y-1.811
X2.9803Y-1.4331
X2.9961Y-2.7559
X3.0Y-2.7165
X3.0315Y-0.8268
X3.0394Y-2.7835
X3.0453Y-2.7421
X3.0945Y-2.7697
X3.122Y-1.7008
X3.1496Y-0.8268
X3.2008Y-1.4331
X3.2426Y-1.4531
X3.2426Y-1.4531
X3.2674Y-1.4778
X3.2674Y-1.4778
X3.268Y-2.5906
X3.2697Y-2.1043
X3.2717Y-2.4449
X3.2717Y-2.4843
X3.2717Y-2.5236
X3.275Y-1.527
X3.275Y-1.527
X3.2776Y-2.1516
X3.2776Y-2.2205
X3.2849Y-1.6097
X3.2849Y-1.6097
X3.2874Y-2.5591
X3.2874Y-2.626
X3.2874Y-2.8445
X3.2913Y-2.3543
X3.2998Y-1.5518
X3.2998Y-1.5518
X3.3045Y-1.8852
X3.3097Y-1.6345
X3.3097Y-1.6345
X3.3293Y-1.91
X3.3388Y-2.0206
X3.3388Y-2.0206
X3.3498Y-1.6215
X3.3498Y-1.6215
X3.3504Y-1.9528
X3.3635Y-1.9958
X3.3635Y-1.9958
X3.3661Y-1.9173
X3.3746Y-1.6462
X3.3746Y-1.6462
X3.378Y-2.4528
X3.3858Y-2.3031
X3.3858Y-2.3465
X3.3858Y-2.4921
X3.3858Y-2.7638
X3.3898Y-2.5354
X3.3898Y-2.5748
X3.3898Y-2.626
X3.3927Y-1.7873
X3.3927Y-1.7873
X3.3937Y-2.1496
X3.3937Y-2.2224
X3.4094Y-2.0197
X3.4173Y-1.6299
X3.4175Y-1.8121
X3.4175Y-1.8121
X3.4423Y-1.8757
X3.4423Y-1.8757
X3.4528Y-1.8268
X3.4567Y-1.2778
X3.4567Y-1.2778
X3.4567Y-1.3128
X3.4567Y-1.3128
X3.4671Y-1.9005
X3.4671Y-1.9005
X3.4803Y-1.9449
X3.4841Y-1.3406
X3.4841Y-1.3756
X3.4843Y-1.8583
X3.4862Y-2.2126
X3.4862Y-2.2717
X3.4882Y-2.7913
X3.4882Y-2.8445
X3.4921Y-2.6299
X3.4955Y-2.4575
X3.4961Y-1.6636
X3.4961Y-1.6636
X3.4961Y-1.6986
X3.4961Y-1.6986
X3.5079Y-2.563
X3.5156Y-1.4002
X3.5156Y-1.4352
X3.5203Y-2.4823
X3.5335Y-2.5906
X3.5506Y-2.5034
X3.5512Y-2.626
X3.5551Y-1.451
X3.5551Y-1.486
X3.563Y-1.5295
X3.5754Y-2.5281
X3.6063Y-1.7205
X3.6085Y-1.8031
X3.6378Y-1.7559
X3.6435Y-1.8031
X3.6594Y-2.8307
X3.6654Y-2.7382
X3.7421Y-1.7165
T2
X1.3671Y-1.1146
X1.3671Y-1.2146
X1.4671Y-1.1146
X1.4671Y-1.2146
X3.2084Y-0.8732
X3.2084Y-0.9732
X3.3084Y-0.8732
X3.3084Y-0.9732
X3.4084Y-0.8732
X3.4084Y-0.9732
X3.5084Y-0.8732
X3.5084Y-0.9732
T3
X0.8543Y-1.1811
X0.8543Y-1.2992
X1.2992Y-0.8543
X1.4173Y-0.8543
T4
X1.0335Y-2.0866
T5
X1.0335Y-2.874
T6
X1.1319Y-1.1417
X2.7461Y-2.4803
X3.0217Y-2.4409
X3.8583Y-2.4803
T0
M30
