%TF.GenerationSoftware,KiCad,Pcbnew,(5.99.0-10407-g1e8b23402c)*%
%TF.CreationDate,2021-07-10T11:28:42-06:00*%
%TF.ProjectId,lobby,6c6f6262-792e-46b6-9963-61645f706362,rev?*%
%TF.SameCoordinates,Original*%
%TF.FileFunction,Soldermask,Bot*%
%TF.FilePolarity,Negative*%
%FSLAX46Y46*%
G04 Gerber Fmt 4.6, Leading zero omitted, Abs format (unit mm)*
G04 Created by KiCad (PCBNEW (5.99.0-10407-g1e8b23402c)) date 2021-07-10 11:28:42*
%MOMM*%
%LPD*%
G01*
G04 APERTURE LIST*
G04 Aperture macros list*
%AMRoundRect*
0 Rectangle with rounded corners*
0 $1 Rounding radius*
0 $2 $3 $4 $5 $6 $7 $8 $9 X,Y pos of 4 corners*
0 Add a 4 corners polygon primitive as box body*
4,1,4,$2,$3,$4,$5,$6,$7,$8,$9,$2,$3,0*
0 Add four circle primitives for the rounded corners*
1,1,$1+$1,$2,$3*
1,1,$1+$1,$4,$5*
1,1,$1+$1,$6,$7*
1,1,$1+$1,$8,$9*
0 Add four rect primitives between the rounded corners*
20,1,$1+$1,$2,$3,$4,$5,0*
20,1,$1+$1,$4,$5,$6,$7,0*
20,1,$1+$1,$6,$7,$8,$9,0*
20,1,$1+$1,$8,$9,$2,$3,0*%
%AMFreePoly0*
4,1,22,0.550000,-0.750000,0.000000,-0.750000,0.000000,-0.745033,-0.079941,-0.743568,-0.215256,-0.701293,-0.333266,-0.622738,-0.424486,-0.514219,-0.481581,-0.384460,-0.499164,-0.250000,-0.500000,-0.250000,-0.500000,0.250000,-0.499164,0.250000,-0.499963,0.256109,-0.478152,0.396186,-0.417904,0.524511,-0.324060,0.630769,-0.204165,0.706417,-0.067858,0.745374,0.000000,0.744959,0.000000,0.750000,
0.550000,0.750000,0.550000,-0.750000,0.550000,-0.750000,$1*%
%AMFreePoly1*
4,1,20,0.000000,0.744959,0.073905,0.744508,0.209726,0.703889,0.328688,0.626782,0.421226,0.519385,0.479903,0.390333,0.500000,0.250000,0.500000,-0.250000,0.499851,-0.262216,0.476331,-0.402017,0.414519,-0.529596,0.319384,-0.634700,0.198574,-0.708877,0.061801,-0.746166,0.000000,-0.745033,0.000000,-0.750000,-0.550000,-0.750000,-0.550000,0.750000,0.000000,0.750000,0.000000,0.744959,
0.000000,0.744959,$1*%
%AMFreePoly2*
4,1,22,0.500000,-0.750000,0.000000,-0.750000,0.000000,-0.745033,-0.079941,-0.743568,-0.215256,-0.701293,-0.333266,-0.622738,-0.424486,-0.514219,-0.481581,-0.384460,-0.499164,-0.250000,-0.500000,-0.250000,-0.500000,0.250000,-0.499164,0.250000,-0.499963,0.256109,-0.478152,0.396186,-0.417904,0.524511,-0.324060,0.630769,-0.204165,0.706417,-0.067858,0.745374,0.000000,0.744959,0.000000,0.750000,
0.500000,0.750000,0.500000,-0.750000,0.500000,-0.750000,$1*%
%AMFreePoly3*
4,1,20,0.000000,0.744959,0.073905,0.744508,0.209726,0.703889,0.328688,0.626782,0.421226,0.519385,0.479903,0.390333,0.500000,0.250000,0.500000,-0.250000,0.499851,-0.262216,0.476331,-0.402017,0.414519,-0.529596,0.319384,-0.634700,0.198574,-0.708877,0.061801,-0.746166,0.000000,-0.745033,0.000000,-0.750000,-0.500000,-0.750000,-0.500000,0.750000,0.000000,0.750000,0.000000,0.744959,
0.000000,0.744959,$1*%
G04 Aperture macros list end*
%ADD10R,1.700000X1.700000*%
%ADD11O,1.700000X1.700000*%
%ADD12RoundRect,0.062500X-0.062500X-0.337500X0.062500X-0.337500X0.062500X0.337500X-0.062500X0.337500X0*%
%ADD13RoundRect,0.062500X-0.412500X-0.062500X0.412500X-0.062500X0.412500X0.062500X-0.412500X0.062500X0*%
%ADD14C,2.700000*%
%ADD15C,6.100000*%
%ADD16FreePoly0,270.000000*%
%ADD17R,1.500000X1.000000*%
%ADD18FreePoly1,270.000000*%
%ADD19RoundRect,0.225000X-0.250000X0.225000X-0.250000X-0.225000X0.250000X-0.225000X0.250000X0.225000X0*%
%ADD20FreePoly2,180.000000*%
%ADD21FreePoly3,180.000000*%
%ADD22RoundRect,0.200000X-0.200000X-0.275000X0.200000X-0.275000X0.200000X0.275000X-0.200000X0.275000X0*%
%ADD23R,2.760000X1.200000*%
%ADD24C,1.300000*%
%ADD25C,1.800000*%
%ADD26R,1.550000X0.300000*%
%ADD27RoundRect,0.225000X0.250000X-0.225000X0.250000X0.225000X-0.250000X0.225000X-0.250000X-0.225000X0*%
%ADD28RoundRect,0.225000X-0.225000X-0.250000X0.225000X-0.250000X0.225000X0.250000X-0.225000X0.250000X0*%
%ADD29RoundRect,0.200000X0.275000X-0.200000X0.275000X0.200000X-0.275000X0.200000X-0.275000X-0.200000X0*%
%ADD30R,1.750000X0.700000*%
%ADD31R,1.550000X1.000000*%
%ADD32R,1.000000X1.475000*%
%ADD33R,1.500000X0.800000*%
%ADD34R,1.500000X1.300000*%
%ADD35R,1.500000X1.500000*%
%ADD36R,1.400000X0.800000*%
%ADD37R,1.500000X0.700000*%
%ADD38R,0.800000X1.000000*%
%ADD39RoundRect,0.200000X0.200000X0.275000X-0.200000X0.275000X-0.200000X-0.275000X0.200000X-0.275000X0*%
%ADD40RoundRect,0.250000X0.275000X-0.312500X0.275000X0.312500X-0.275000X0.312500X-0.275000X-0.312500X0*%
%ADD41R,0.700000X1.500000*%
%ADD42R,1.000000X0.800000*%
%ADD43RoundRect,0.200000X-0.275000X0.200000X-0.275000X-0.200000X0.275000X-0.200000X0.275000X0.200000X0*%
%ADD44R,1.200000X1.350000*%
%ADD45R,1.350000X1.200000*%
%ADD46R,2.600000X2.600000*%
%ADD47RoundRect,0.150000X-0.150000X0.512500X-0.150000X-0.512500X0.150000X-0.512500X0.150000X0.512500X0*%
G04 APERTURE END LIST*
D10*
%TO.C,J1*%
X37263646Y-28310153D03*
D11*
X34723646Y-28310153D03*
X37263646Y-30850153D03*
X34723646Y-30850153D03*
%TD*%
D10*
%TO.C,J2*%
X89113646Y-24720153D03*
D11*
X89113646Y-22180153D03*
X86573646Y-24720153D03*
X86573646Y-22180153D03*
X84033646Y-24720153D03*
X84033646Y-22180153D03*
X81493646Y-24720153D03*
X81493646Y-22180153D03*
%TD*%
D12*
%TO.C,U4*%
X79750000Y-40090000D03*
X80250000Y-40090000D03*
X80750000Y-40090000D03*
D13*
X80925000Y-39340000D03*
X80925000Y-38840000D03*
D12*
X80750000Y-38090000D03*
X80250000Y-38090000D03*
X79750000Y-38090000D03*
D13*
X79575000Y-38840000D03*
X79575000Y-39340000D03*
%TD*%
D14*
%TO.C,H1*%
X69750000Y-63000000D03*
%TD*%
%TO.C,H2*%
X98000000Y-63000000D03*
%TD*%
D15*
%TO.C,Module1*%
X28750000Y-29000000D03*
X76750000Y-62000000D03*
%TD*%
D16*
%TO.C,JP5*%
X56250000Y-36200000D03*
D17*
X56250000Y-37500000D03*
D18*
X56250000Y-38800000D03*
%TD*%
D19*
%TO.C,C5*%
X32500000Y-71725000D03*
X32500000Y-73275000D03*
%TD*%
D20*
%TO.C,JP3*%
X56925000Y-45000000D03*
D21*
X55625000Y-45000000D03*
%TD*%
D22*
%TO.C,R7*%
X61175000Y-43250000D03*
X62825000Y-43250000D03*
%TD*%
D23*
%TO.C,U2*%
X21750000Y-73350000D03*
D24*
X26250000Y-53000000D03*
D23*
X21750000Y-52650000D03*
D25*
X26250000Y-73000000D03*
D26*
X21525000Y-53750000D03*
X27975000Y-54000000D03*
X21525000Y-54250000D03*
X27975000Y-54500000D03*
X21525000Y-54750000D03*
X27975000Y-55000000D03*
X21525000Y-55250000D03*
X27975000Y-55500000D03*
X21525000Y-55750000D03*
X27975000Y-56000000D03*
X21525000Y-56250000D03*
X27975000Y-56500000D03*
X21525000Y-56750000D03*
X27975000Y-57000000D03*
X21525000Y-57250000D03*
X27975000Y-57500000D03*
X21525000Y-57750000D03*
X27975000Y-58000000D03*
X21525000Y-58250000D03*
X27975000Y-58500000D03*
X21525000Y-58750000D03*
X27975000Y-59000000D03*
X21525000Y-59250000D03*
X27975000Y-59500000D03*
X21525000Y-59750000D03*
X27975000Y-60000000D03*
X21525000Y-60250000D03*
X27975000Y-60500000D03*
X21525000Y-60750000D03*
X27975000Y-61000000D03*
X21525000Y-61250000D03*
X27975000Y-61500000D03*
X21525000Y-61750000D03*
X27975000Y-62000000D03*
X21525000Y-62250000D03*
X27975000Y-62500000D03*
X21525000Y-62750000D03*
X27975000Y-63000000D03*
X21525000Y-63250000D03*
X27975000Y-63500000D03*
X21525000Y-63750000D03*
X27975000Y-64000000D03*
X21525000Y-64250000D03*
X27975000Y-64500000D03*
X21525000Y-64750000D03*
X27975000Y-65000000D03*
X21525000Y-65250000D03*
X27975000Y-65500000D03*
X21525000Y-65750000D03*
X27975000Y-66000000D03*
X21525000Y-66250000D03*
X27975000Y-66500000D03*
X21525000Y-66750000D03*
X27975000Y-67000000D03*
X21525000Y-67250000D03*
X27975000Y-67500000D03*
X21525000Y-67750000D03*
X27975000Y-68000000D03*
X21525000Y-70250000D03*
X27975000Y-70500000D03*
X21525000Y-70750000D03*
X27975000Y-71000000D03*
X21525000Y-71250000D03*
X27975000Y-71500000D03*
X21525000Y-71750000D03*
X27975000Y-72000000D03*
X21525000Y-72250000D03*
%TD*%
D20*
%TO.C,JP1*%
X56925000Y-51000000D03*
D21*
X55625000Y-51000000D03*
%TD*%
D19*
%TO.C,C4*%
X34000000Y-71725000D03*
X34000000Y-73275000D03*
%TD*%
%TO.C,C11*%
X31000000Y-71715000D03*
X31000000Y-73265000D03*
%TD*%
%TO.C,C9*%
X76000000Y-38225000D03*
X76000000Y-39775000D03*
%TD*%
D20*
%TO.C,JP2*%
X56925000Y-48000000D03*
D21*
X55625000Y-48000000D03*
%TD*%
D27*
%TO.C,C7*%
X68000000Y-39775000D03*
X68000000Y-38225000D03*
%TD*%
D28*
%TO.C,C1*%
X61225000Y-37000000D03*
X62775000Y-37000000D03*
%TD*%
D29*
%TO.C,R3*%
X86000000Y-28825000D03*
X86000000Y-27175000D03*
%TD*%
D30*
%TO.C,J3*%
X21925000Y-40200000D03*
X21925000Y-41300000D03*
X21925000Y-42400000D03*
X21925000Y-43500000D03*
X21925000Y-44600000D03*
X21925000Y-45700000D03*
X21925000Y-46800000D03*
X21925000Y-47900000D03*
D31*
X32725000Y-37750000D03*
D32*
X31150000Y-49037500D03*
D33*
X29650000Y-49375000D03*
D34*
X22050000Y-49100000D03*
D35*
X22050000Y-37750000D03*
D36*
X30300000Y-37425000D03*
%TD*%
D37*
%TO.C,SW2*%
X23450000Y-33750000D03*
X23450000Y-30750000D03*
X23450000Y-29250000D03*
D38*
X22750000Y-35150000D03*
X22750000Y-27850000D03*
X20650000Y-35150000D03*
X20650000Y-27850000D03*
%TD*%
D39*
%TO.C,R6*%
X62825000Y-45500000D03*
X61175000Y-45500000D03*
%TD*%
D20*
%TO.C,JP4*%
X56925000Y-42000000D03*
D21*
X55625000Y-42000000D03*
%TD*%
D40*
%TO.C,C6*%
X71750000Y-39887500D03*
X71750000Y-38112500D03*
%TD*%
D19*
%TO.C,C8*%
X77500000Y-38225000D03*
X77500000Y-39775000D03*
%TD*%
%TO.C,C2*%
X28500000Y-34225000D03*
X28500000Y-35775000D03*
%TD*%
D41*
%TO.C,SW1*%
X32250000Y-23450000D03*
X35250000Y-23450000D03*
X36750000Y-23450000D03*
D42*
X30850000Y-20650000D03*
X30850000Y-22750000D03*
X38150000Y-20650000D03*
X38150000Y-22750000D03*
%TD*%
D43*
%TO.C,R9*%
X69750000Y-38175000D03*
X69750000Y-39825000D03*
%TD*%
D39*
%TO.C,R5*%
X62825000Y-47000000D03*
X61175000Y-47000000D03*
%TD*%
D43*
%TO.C,R1*%
X61250000Y-49225000D03*
X61250000Y-50875000D03*
%TD*%
D29*
%TO.C,R8*%
X27000000Y-35825000D03*
X27000000Y-34175000D03*
%TD*%
D43*
%TO.C,R2*%
X62750000Y-49225000D03*
X62750000Y-50875000D03*
%TD*%
D29*
%TO.C,R4*%
X84500000Y-28825000D03*
X84500000Y-27175000D03*
%TD*%
D44*
%TO.C,U3*%
X71605000Y-48260000D03*
X69805000Y-48260000D03*
X68005000Y-48260000D03*
D45*
X66830000Y-45285000D03*
D44*
X68005000Y-42310000D03*
X69805000Y-42310000D03*
X71605000Y-42310000D03*
D45*
X72780000Y-45285000D03*
D46*
X69805000Y-45285000D03*
%TD*%
D19*
%TO.C,C3*%
X30000000Y-34225000D03*
X30000000Y-35775000D03*
%TD*%
%TO.C,C10*%
X35500000Y-71725000D03*
X35500000Y-73275000D03*
%TD*%
D47*
%TO.C,U1*%
X61100000Y-38932500D03*
X62050000Y-38932500D03*
X63000000Y-38932500D03*
X63000000Y-41207500D03*
X61100000Y-41207500D03*
%TD*%
M02*
