M48
; DRILL file {KiCad (5.99.0-10407-g1e8b23402c)} date Fri Jun  4 12:53:21 2021
; FORMAT={-:-/ absolute / inch / decimal}
; #@! TF.CreationDate,2021-06-04T12:53:21-06:00
; #@! TF.GenerationSoftware,Kicad,Pcbnew,(5.99.0-10407-g1e8b23402c)
; #@! TF.FileFunction,MixedPlating,1,4
FMAT,2
INCH
; #@! TA.AperFunction,Plated,PTH,ViaDrill
T1C0.0157
; #@! TA.AperFunction,Plated,PTH,ComponentDrill
T2C0.0394
; #@! TA.AperFunction,NonPlated,NPTH,ComponentDrill
T3C0.0276
; #@! TA.AperFunction,NonPlated,NPTH,ComponentDrill
T4C0.0354
; #@! TA.AperFunction,NonPlated,NPTH,ComponentDrill
T5C0.0433
; #@! TA.AperFunction,NonPlated,NPTH,ComponentDrill
T6C0.0630
; #@! TA.AperFunction,NonPlated,NPTH,ComponentDrill
T7C0.1063
%
G90
G05
T1
X0.8268Y-2.0157
X0.8307Y-2.7205
X0.9055Y-2.1654
X0.9055Y-2.2441
X0.9055Y-2.3228
X0.9055Y-2.4016
X0.9055Y-2.8268
X0.9087Y-2.4711
X0.9409Y-2.0197
X0.9449Y-2.7087
X0.9488Y-2.6654
X0.9646Y-1.811
X0.9803Y-1.1732
X0.9843Y-1.7126
X0.9843Y-2.9528
X0.9921Y-1.7835
X1.0315Y-1.2795
X1.0315Y-2.6339
X1.0315Y-2.6811
X1.063Y-2.4528
X1.0827Y-2.9528
X1.0906Y-1.3268
X1.1024Y-1.9291
X1.124Y-2.0374
X1.1496Y-2.063
X1.1752Y-2.0886
X1.1811Y-0.8858
X1.1811Y-1.5748
X1.1811Y-1.6732
X1.1811Y-2.9528
X1.1909Y-2.5689
X1.2008Y-2.1142
X1.2047Y-2.1496
X1.2047Y-2.5157
X1.2205Y-2.6496
X1.2244Y-1.9882
X1.2441Y-1.6378
X1.2598Y-2.1457
X1.2795Y-0.9843
X1.2795Y-1.378
X1.2795Y-1.5748
X1.2795Y-2.4606
X1.2795Y-2.9528
X1.2894Y-1.6634
X1.3465Y-2.5551
X1.3681Y-2.4409
X1.378Y-0.8858
X1.378Y-1.378
X1.378Y-2.3622
X1.378Y-2.9528
X1.3858Y-2.5512
X1.3976Y-2.4764
X1.4075Y-2.5197
X1.4134Y-1.437
X1.4252Y-2.4449
X1.4528Y-2.6811
X1.4606Y-2.4646
X1.4606Y-2.7717
X1.4646Y-2.4252
X1.4685Y-2.8386
X1.4764Y-0.9843
X1.4764Y-1.378
X1.4764Y-1.6732
X1.4764Y-1.7717
X1.4764Y-2.9528
X1.4803Y-2.6457
X1.5276Y-2.2047
X1.5276Y-2.3976
X1.5551Y-2.3622
X1.5551Y-2.6299
X1.5551Y-2.6732
X1.5748Y-0.8858
X1.5748Y-1.378
X1.5748Y-1.6732
X1.5748Y-1.7717
X1.5748Y-2.0669
X1.5748Y-2.126
X1.5748Y-2.7559
X1.5748Y-2.9528
X1.5945Y-2.1654
X1.5945Y-2.626
X1.6066Y-1.1029
X1.626Y-2.5984
X1.6314Y-1.0782
X1.6535Y-2.5197
X1.6614Y-2.5748
X1.6732Y-2.7559
X1.6732Y-2.9528
X1.6857Y-0.9194
X1.6884Y-0.9915
X1.7105Y-0.9442
X1.7132Y-1.0163
X1.7323Y-2.5984
X1.7362Y-1.1378
X1.752Y-1.0728
X1.752Y-1.6634
X1.7598Y-1.0157
X1.7717Y-1.6024
X1.7717Y-1.8701
X1.7717Y-1.9685
X1.7717Y-2.0669
X1.7717Y-2.1654
X1.7717Y-2.9528
X1.7808Y-1.3456
X1.7874Y-1.4921
X1.7908Y-2.5703
X1.7953Y-1.4291
X1.7955Y-2.3354
X1.7992Y-1.5709
X1.8012Y-1.0236
X1.8056Y-1.3704
X1.8114Y-1.15
X1.8155Y-2.5951
X1.8305Y-2.3354
X1.8504Y-2.7165
X1.8577Y-2.5951
X1.8701Y-1.3976
X1.8701Y-1.5157
X1.8701Y-1.7717
X1.8701Y-1.8701
X1.8701Y-1.9685
X1.8701Y-2.0669
X1.8701Y-2.1654
X1.8701Y-2.9528
X1.8799Y-2.874
X1.8825Y-2.5703
X1.8839Y-1.1394
X1.8919Y-2.2463
X1.9173Y-2.9173
X1.927Y-2.2463
X1.9409Y-2.8858
X1.9488Y-1.122
X1.9685Y-0.8858
X1.9685Y-1.6732
X1.9685Y-1.8701
X1.9685Y-1.9685
X1.9685Y-2.0669
X1.9685Y-2.1654
X1.9803Y-2.874
X1.9961Y-2.3583
X1.998Y-1.122
X2.0276Y-2.874
X2.0433Y-1.8583
X2.0472Y-1.122
X2.0472Y-2.3346
X2.0669Y-0.9843
X2.0669Y-1.6732
X2.0669Y-1.7717
X2.1063Y-1.122
X2.1063Y-2.3504
X2.1063Y-2.5591
X2.1339Y-1.6535
X2.1339Y-1.7717
X2.1339Y-1.8898
X2.1358Y-1.3976
X2.1358Y-1.5157
X2.1457Y-2.0118
X2.1654Y-0.8858
X2.1654Y-2.6772
X2.189Y-2.7638
X2.2047Y-0.8268
X2.2047Y-2.6378
X2.2205Y-1.1142
X2.2323Y-2.7638
X2.2677Y-1.4252
X2.2717Y-1.5433
X2.2717Y-2.2126
X2.2717Y-2.7638
X2.3031Y-1.3878
X2.311Y-2.7638
X2.3228Y-0.8268
X2.3228Y-0.9921
X2.3543Y-2.7638
X2.3622Y-1.4843
X2.3622Y-2.6575
X2.3661Y-1.9409
X2.3701Y-2.5748
X2.4016Y-1.3878
X2.4094Y-1.6693
X2.4134Y-2.0472
X2.4252Y-2.5748
X2.4409Y-0.8268
X2.4409Y-1.5787
X2.4488Y-1.0079
X2.4488Y-2.1575
X2.4606Y-2.6575
X2.4606Y-2.7559
X2.4646Y-2.5748
X2.4685Y-2.0472
X2.4764Y-1.8937
X2.4882Y-2.3543
X2.5118Y-1.7047
X2.5236Y-2.3346
X2.5276Y-1.622
X2.5433Y-1.0276
X2.5433Y-1.7283
X2.5433Y-2.8425
X2.5472Y-1.2205
X2.5591Y-0.8268
X2.563Y-2.0551
X2.5689Y-2.815
X2.5709Y-1.622
X2.5748Y-1.7559
X2.5787Y-2.7087
X2.5827Y-1.0276
X2.6102Y-1.622
X2.6496Y-1.622
X2.6575Y-1.9685
X2.6575Y-2.2638
X2.6575Y-2.3622
X2.6575Y-2.6575
X2.6575Y-2.7559
X2.6772Y-0.8268
X2.6969Y-1.1102
X2.7362Y-1.2894
X2.7461Y-1.4646
X2.748Y-1.9685
X2.7559Y-2.2638
X2.7559Y-2.3622
X2.7559Y-2.6575
X2.7559Y-2.7559
X2.7854Y-1.2303
X2.7953Y-0.8268
X2.8189Y-1.2795
X2.8366Y-1.8091
X2.8465Y-1.2441
X2.8543Y-2.6575
X2.8543Y-2.7559
X2.8661Y-1.8386
X2.878Y-1.2638
X2.9094Y-1.2913
X2.9094Y-2.6457
X2.9134Y-0.8268
X2.9409Y-1.6142
X2.9449Y-2.6654
X2.9528Y-2.7559
X2.9803Y-2.6811
X2.9882Y-2.8189
X3.0157Y-2.6969
X3.0276Y-2.8228
X3.0315Y-0.8268
X3.0315Y-1.3976
X3.0669Y-2.7874
X3.1004Y-2.8839
X3.1063Y-2.7835
X3.1149Y-2.6924
X3.1149Y-2.7275
X3.1496Y-0.8268
X3.2815Y-2.153
X3.2822Y-2.6911
X3.2822Y-2.7262
X3.2835Y-2.2717
X3.2835Y-2.4173
X3.2835Y-2.4646
X3.2835Y-2.5118
X3.2835Y-2.5551
X3.2835Y-2.5945
X3.2835Y-2.6339
X3.2874Y-1.6437
X3.2953Y-2.7638
X3.311Y-2.8736
X3.3465Y-1.5748
X3.3465Y-1.7717
X3.3724Y-2.5624
X3.3732Y-2.46
X3.3734Y-2.0467
X3.3734Y-2.1502
X3.374Y-2.6142
X3.3858Y-2.311
X3.3858Y-2.374
X3.3972Y-2.5376
X3.398Y-2.4848
X3.3982Y-2.0714
X3.3982Y-2.1254
X3.4016Y-2.6378
X3.4252Y-2.8839
X3.4449Y-1.1811
X3.4449Y-1.4764
X3.4449Y-1.5748
X3.4449Y-1.7717
X3.4449Y-1.8701
X3.4764Y-2.4331
X3.4882Y-2.5433
X3.4961Y-2.1772
X3.5197Y-2.3504
X3.5242Y-2.145
X3.5309Y-2.0506
X3.5433Y-1.0827
X3.5433Y-1.2795
X3.5433Y-1.5748
X3.5433Y-1.7717
X3.5433Y-1.8701
X3.5512Y-2.2165
X3.5557Y-2.0754
X3.5591Y-2.3504
X3.5591Y-2.3898
X3.5591Y-2.4291
X3.5591Y-2.4685
X3.5591Y-2.5079
X3.5591Y-2.5472
X3.5591Y-2.5866
X3.5591Y-2.626
X3.5593Y-2.145
X3.563Y-1.6437
X3.5925Y-2.8445
X3.6417Y-1.1811
X3.6417Y-1.378
X3.6417Y-2.9528
X3.7205Y-1.7717
X3.7205Y-2.2244
X3.7205Y-2.3524
X3.7303Y-1.6437
X3.7402Y-1.0827
X3.7402Y-1.2795
X3.7402Y-1.4764
X3.7402Y-2.4606
X3.7402Y-2.6575
X3.7402Y-2.8543
X3.8386Y-1.1811
X3.8386Y-1.378
X3.8386Y-1.5748
X3.8386Y-2.3622
X3.8386Y-2.7559
X3.8386Y-2.9528
X3.937Y-2.6575
X3.937Y-2.8543
X4.0354Y-2.3622
X4.0354Y-2.7559
X4.0354Y-2.9528
T2
X1.3671Y-1.1146
X1.3671Y-1.2146
X1.4671Y-1.1146
X1.4671Y-1.2146
X3.2084Y-0.8732
X3.2084Y-0.9732
X3.3084Y-0.8732
X3.3084Y-0.9732
X3.4084Y-0.8732
X3.4084Y-0.9732
X3.5084Y-0.8732
X3.5084Y-0.9732
T3
X2.2146Y-2.1004
X2.2146Y-2.1713
T4
X0.8543Y-1.1811
X0.8543Y-1.2992
T5
X1.0335Y-2.0866
T6
X1.0335Y-2.874
T7
X1.1319Y-1.1417
X2.7461Y-2.4803
X3.0217Y-2.4409
X3.937Y-2.4803
T0
M30
