%TF.GenerationSoftware,KiCad,Pcbnew,(5.99.0-10407-g1e8b23402c)*%
%TF.CreationDate,2021-06-04T12:53:15-06:00*%
%TF.ProjectId,lobby,6c6f6262-792e-46b6-9963-61645f706362,rev?*%
%TF.SameCoordinates,Original*%
%TF.FileFunction,Legend,Bot*%
%TF.FilePolarity,Positive*%
%FSLAX46Y46*%
G04 Gerber Fmt 4.6, Leading zero omitted, Abs format (unit mm)*
G04 Created by KiCad (PCBNEW (5.99.0-10407-g1e8b23402c)) date 2021-06-04 12:53:15*
%MOMM*%
%LPD*%
G01*
G04 APERTURE LIST*
%ADD10C,0.150000*%
%ADD11C,0.120000*%
G04 APERTURE END LIST*
D10*
%TO.C,J3*%
X23847619Y-48233333D02*
X23133333Y-48233333D01*
X22990476Y-48280952D01*
X22895238Y-48376190D01*
X22847619Y-48519047D01*
X22847619Y-48614285D01*
X23847619Y-47852380D02*
X23847619Y-47233333D01*
X23466666Y-47566666D01*
X23466666Y-47423809D01*
X23419047Y-47328571D01*
X23371428Y-47280952D01*
X23276190Y-47233333D01*
X23038095Y-47233333D01*
X22942857Y-47280952D01*
X22895238Y-47328571D01*
X22847619Y-47423809D01*
X22847619Y-47709523D01*
X22895238Y-47804761D01*
X22942857Y-47852380D01*
D11*
%TO.C,JP5*%
X57450000Y-36300000D02*
X57750000Y-36600000D01*
X57450000Y-36300000D02*
X57750000Y-36000000D01*
X55950000Y-39550000D02*
X56550000Y-39550000D01*
X56550000Y-35450000D02*
X55950000Y-35450000D01*
X55250000Y-36100000D02*
X55250000Y-38900000D01*
X57250000Y-38900000D02*
X57250000Y-36100000D01*
X57750000Y-36000000D02*
X57750000Y-36600000D01*
X55950000Y-35450000D02*
G75*
G03*
X55250000Y-36150000I0J-700000D01*
G01*
X56550000Y-39550000D02*
G75*
G03*
X57250000Y-38850000I0J700000D01*
G01*
X55250000Y-38850000D02*
G75*
G03*
X55950000Y-39550000I700000J0D01*
G01*
X57250000Y-36150000D02*
G75*
G03*
X56550000Y-35450000I-700000J0D01*
G01*
%TO.C,C5*%
X31990000Y-72359420D02*
X31990000Y-72640580D01*
X33010000Y-72359420D02*
X33010000Y-72640580D01*
%TO.C,JP3*%
X56975000Y-44000000D02*
X55575000Y-44000000D01*
X57675000Y-45300000D02*
X57675000Y-44700000D01*
X54875000Y-44700000D02*
X54875000Y-45300000D01*
X55575000Y-46000000D02*
X56975000Y-46000000D01*
X55575000Y-44000000D02*
G75*
G03*
X54875000Y-44700000I0J-700000D01*
G01*
X54875000Y-45300000D02*
G75*
G03*
X55575000Y-46000000I700000J0D01*
G01*
X56975000Y-46000000D02*
G75*
G03*
X57675000Y-45300000I0J700000D01*
G01*
X57675000Y-44700000D02*
G75*
G03*
X56975000Y-44000000I-700000J0D01*
G01*
%TO.C,R7*%
X61762742Y-42727500D02*
X62237258Y-42727500D01*
X61762742Y-43772500D02*
X62237258Y-43772500D01*
%TO.C,U2*%
X19750000Y-74500000D02*
X29750000Y-74500000D01*
X19750000Y-51500000D02*
X19750000Y-74500000D01*
X29750000Y-51500000D02*
X19750000Y-51500000D01*
X29750000Y-74500000D02*
X29750000Y-51500000D01*
%TO.C,JP1*%
X56975000Y-50000000D02*
X55575000Y-50000000D01*
X55575000Y-52000000D02*
X56975000Y-52000000D01*
X57675000Y-51300000D02*
X57675000Y-50700000D01*
X54875000Y-50700000D02*
X54875000Y-51300000D01*
X55575000Y-50000000D02*
G75*
G03*
X54875000Y-50700000I0J-700000D01*
G01*
X56975000Y-52000000D02*
G75*
G03*
X57675000Y-51300000I0J700000D01*
G01*
X57675000Y-50700000D02*
G75*
G03*
X56975000Y-50000000I-700000J0D01*
G01*
X54875000Y-51300000D02*
G75*
G03*
X55575000Y-52000000I700000J0D01*
G01*
%TO.C,C4*%
X34510000Y-72359420D02*
X34510000Y-72640580D01*
X33490000Y-72359420D02*
X33490000Y-72640580D01*
%TO.C,C11*%
X30490000Y-72349420D02*
X30490000Y-72630580D01*
X31510000Y-72349420D02*
X31510000Y-72630580D01*
%TO.C,C9*%
X75490000Y-38859420D02*
X75490000Y-39140580D01*
X76510000Y-38859420D02*
X76510000Y-39140580D01*
%TO.C,JP2*%
X57675000Y-48300000D02*
X57675000Y-47700000D01*
X55575000Y-49000000D02*
X56975000Y-49000000D01*
X54875000Y-47700000D02*
X54875000Y-48300000D01*
X56975000Y-47000000D02*
X55575000Y-47000000D01*
X54875000Y-48300000D02*
G75*
G03*
X55575000Y-49000000I700000J0D01*
G01*
X57675000Y-47700000D02*
G75*
G03*
X56975000Y-47000000I-700000J0D01*
G01*
X56975000Y-49000000D02*
G75*
G03*
X57675000Y-48300000I0J700000D01*
G01*
X55575000Y-47000000D02*
G75*
G03*
X54875000Y-47700000I0J-700000D01*
G01*
%TO.C,C7*%
X67490000Y-39140580D02*
X67490000Y-38859420D01*
X68510000Y-39140580D02*
X68510000Y-38859420D01*
%TO.C,C1*%
X61859420Y-36490000D02*
X62140580Y-36490000D01*
X61859420Y-37510000D02*
X62140580Y-37510000D01*
%TO.C,R3*%
X85477500Y-28237258D02*
X85477500Y-27762742D01*
X86522500Y-28237258D02*
X86522500Y-27762742D01*
%TO.C,J2*%
X87843646Y-26050153D02*
X39523646Y-26050153D01*
X90443646Y-20850153D02*
X39523646Y-20850153D01*
X87843646Y-23450153D02*
X90443646Y-23450153D01*
X89113646Y-26050153D02*
X90443646Y-26050153D01*
X87843646Y-26050153D02*
X87843646Y-23450153D01*
X39523646Y-26050153D02*
X39523646Y-20850153D01*
X90443646Y-23450153D02*
X90443646Y-20850153D01*
X90443646Y-26050153D02*
X90443646Y-24720153D01*
%TO.C,R6*%
X62237258Y-46022500D02*
X61762742Y-46022500D01*
X62237258Y-44977500D02*
X61762742Y-44977500D01*
%TO.C,JP4*%
X56975000Y-41000000D02*
X55575000Y-41000000D01*
X57675000Y-42300000D02*
X57675000Y-41700000D01*
X55575000Y-43000000D02*
X56975000Y-43000000D01*
X54875000Y-41700000D02*
X54875000Y-42300000D01*
X54875000Y-42300000D02*
G75*
G03*
X55575000Y-43000000I700000J0D01*
G01*
X57675000Y-41700000D02*
G75*
G03*
X56975000Y-41000000I-700000J0D01*
G01*
X56975000Y-43000000D02*
G75*
G03*
X57675000Y-42300000I0J700000D01*
G01*
X55575000Y-41000000D02*
G75*
G03*
X54875000Y-41700000I0J-700000D01*
G01*
%TO.C,J1*%
X35993646Y-26980153D02*
X33393646Y-26980153D01*
X33393646Y-26980153D02*
X33393646Y-32180153D01*
X38593646Y-26980153D02*
X37263646Y-26980153D01*
X38593646Y-29580153D02*
X38593646Y-32180153D01*
X38593646Y-32180153D02*
X33393646Y-32180153D01*
X38593646Y-29580153D02*
X35993646Y-29580153D01*
X35993646Y-29580153D02*
X35993646Y-26980153D01*
X38593646Y-28310153D02*
X38593646Y-26980153D01*
%TO.C,C6*%
X71015000Y-39261252D02*
X71015000Y-38738748D01*
X72485000Y-39261252D02*
X72485000Y-38738748D01*
%TO.C,C8*%
X76990000Y-38859420D02*
X76990000Y-39140580D01*
X78010000Y-38859420D02*
X78010000Y-39140580D01*
%TO.C,C2*%
X27010000Y-34359420D02*
X27010000Y-34640580D01*
X25990000Y-34359420D02*
X25990000Y-34640580D01*
%TO.C,R9*%
X69227500Y-38762742D02*
X69227500Y-39237258D01*
X70272500Y-38762742D02*
X70272500Y-39237258D01*
%TO.C,R5*%
X62237258Y-46477500D02*
X61762742Y-46477500D01*
X62237258Y-47522500D02*
X61762742Y-47522500D01*
%TO.C,R1*%
X60727500Y-49812742D02*
X60727500Y-50287258D01*
X61772500Y-49812742D02*
X61772500Y-50287258D01*
%TO.C,R8*%
X25522500Y-31737258D02*
X25522500Y-31262742D01*
X24477500Y-31737258D02*
X24477500Y-31262742D01*
D10*
%TO.C,U4*%
X78795000Y-37415000D02*
X78795000Y-40765000D01*
X82145000Y-37415000D02*
X81845000Y-37415000D01*
X78795000Y-40765000D02*
X79095000Y-40765000D01*
X82145000Y-40765000D02*
X81845000Y-40765000D01*
X78795000Y-37415000D02*
X79020000Y-37415000D01*
X79020000Y-37415000D02*
X79020000Y-36190000D01*
X82145000Y-37415000D02*
X82145000Y-40765000D01*
D11*
%TO.C,R2*%
X63272500Y-49812742D02*
X63272500Y-50287258D01*
X62227500Y-49812742D02*
X62227500Y-50287258D01*
%TO.C,R4*%
X85022500Y-28237258D02*
X85022500Y-27762742D01*
X83977500Y-28237258D02*
X83977500Y-27762742D01*
%TO.C,C3*%
X24490000Y-34359420D02*
X24490000Y-34640580D01*
X25510000Y-34359420D02*
X25510000Y-34640580D01*
%TO.C,C10*%
X36010000Y-72359420D02*
X36010000Y-72640580D01*
X34990000Y-72359420D02*
X34990000Y-72640580D01*
%TO.C,U1*%
X63610000Y-40070000D02*
X63610000Y-40870000D01*
X60490000Y-40070000D02*
X60490000Y-40870000D01*
X63610000Y-40070000D02*
X63610000Y-39270000D01*
X60490000Y-40070000D02*
X60490000Y-38270000D01*
%TD*%
M02*
