%TF.GenerationSoftware,KiCad,Pcbnew,(5.99.0-10407-g1e8b23402c)*%
%TF.CreationDate,2021-07-06T19:16:57-06:00*%
%TF.ProjectId,lobby,6c6f6262-792e-46b6-9963-61645f706362,rev?*%
%TF.SameCoordinates,Original*%
%TF.FileFunction,Paste,Bot*%
%TF.FilePolarity,Positive*%
%FSLAX46Y46*%
G04 Gerber Fmt 4.6, Leading zero omitted, Abs format (unit mm)*
G04 Created by KiCad (PCBNEW (5.99.0-10407-g1e8b23402c)) date 2021-07-06 19:16:57*
%MOMM*%
%LPD*%
G01*
G04 APERTURE LIST*
G04 Aperture macros list*
%AMRoundRect*
0 Rectangle with rounded corners*
0 $1 Rounding radius*
0 $2 $3 $4 $5 $6 $7 $8 $9 X,Y pos of 4 corners*
0 Add a 4 corners polygon primitive as box body*
4,1,4,$2,$3,$4,$5,$6,$7,$8,$9,$2,$3,0*
0 Add four circle primitives for the rounded corners*
1,1,$1+$1,$2,$3*
1,1,$1+$1,$4,$5*
1,1,$1+$1,$6,$7*
1,1,$1+$1,$8,$9*
0 Add four rect primitives between the rounded corners*
20,1,$1+$1,$2,$3,$4,$5,0*
20,1,$1+$1,$4,$5,$6,$7,0*
20,1,$1+$1,$6,$7,$8,$9,0*
20,1,$1+$1,$8,$9,$2,$3,0*%
G04 Aperture macros list end*
%ADD10RoundRect,0.225000X-0.250000X0.225000X-0.250000X-0.225000X0.250000X-0.225000X0.250000X0.225000X0*%
%ADD11RoundRect,0.200000X-0.200000X-0.275000X0.200000X-0.275000X0.200000X0.275000X-0.200000X0.275000X0*%
%ADD12R,2.750000X1.200000*%
%ADD13R,1.550000X0.300000*%
%ADD14RoundRect,0.225000X0.250000X-0.225000X0.250000X0.225000X-0.250000X0.225000X-0.250000X-0.225000X0*%
%ADD15RoundRect,0.225000X-0.225000X-0.250000X0.225000X-0.250000X0.225000X0.250000X-0.225000X0.250000X0*%
%ADD16RoundRect,0.200000X0.275000X-0.200000X0.275000X0.200000X-0.275000X0.200000X-0.275000X-0.200000X0*%
%ADD17R,1.750000X0.700000*%
%ADD18R,1.550000X1.000000*%
%ADD19R,1.000000X1.475000*%
%ADD20R,1.500000X0.800000*%
%ADD21R,1.500000X1.300000*%
%ADD22R,1.500000X1.500000*%
%ADD23R,1.400000X0.800000*%
%ADD24R,1.500000X0.700000*%
%ADD25R,0.800000X1.000000*%
%ADD26RoundRect,0.200000X0.200000X0.275000X-0.200000X0.275000X-0.200000X-0.275000X0.200000X-0.275000X0*%
%ADD27RoundRect,0.250000X0.275000X-0.312500X0.275000X0.312500X-0.275000X0.312500X-0.275000X-0.312500X0*%
%ADD28R,0.700000X1.500000*%
%ADD29R,1.000000X0.800000*%
%ADD30RoundRect,0.200000X-0.275000X0.200000X-0.275000X-0.200000X0.275000X-0.200000X0.275000X0.200000X0*%
%ADD31R,0.300000X1.400000*%
%ADD32R,1.200000X1.350000*%
%ADD33R,1.350000X1.200000*%
%ADD34R,2.600000X2.600000*%
%ADD35RoundRect,0.150000X-0.150000X0.512500X-0.150000X-0.512500X0.150000X-0.512500X0.150000X0.512500X0*%
G04 APERTURE END LIST*
D10*
%TO.C,C5*%
X32500000Y-71725000D03*
X32500000Y-73275000D03*
%TD*%
D11*
%TO.C,R7*%
X61175000Y-43250000D03*
X62825000Y-43250000D03*
%TD*%
D12*
%TO.C,U2*%
X21750000Y-52650000D03*
X21750000Y-73350000D03*
D13*
X20975000Y-53750000D03*
X28525000Y-54000000D03*
X20975000Y-54250000D03*
X28525000Y-54500000D03*
X20975000Y-54750000D03*
X28525000Y-55000000D03*
X20975000Y-55250000D03*
X28525000Y-55500000D03*
X20975000Y-55750000D03*
X28525000Y-56000000D03*
X20975000Y-56250000D03*
X28525000Y-56500000D03*
X20975000Y-56750000D03*
X28525000Y-57000000D03*
X20975000Y-57250000D03*
X28525000Y-57500000D03*
X20975000Y-57750000D03*
X28525000Y-58000000D03*
X20975000Y-58250000D03*
X28525000Y-58500000D03*
X20975000Y-58750000D03*
X28525000Y-59000000D03*
X20975000Y-59250000D03*
X28525000Y-59500000D03*
X20975000Y-59750000D03*
X28525000Y-60000000D03*
X20975000Y-60250000D03*
X28525000Y-60500000D03*
X20975000Y-60750000D03*
X28525000Y-61000000D03*
X20975000Y-61250000D03*
X28525000Y-61500000D03*
X20975000Y-61750000D03*
X28525000Y-62000000D03*
X20975000Y-62250000D03*
X28525000Y-62500000D03*
X20975000Y-62750000D03*
X28525000Y-63000000D03*
X20975000Y-63250000D03*
X28525000Y-63500000D03*
X20975000Y-63750000D03*
X28525000Y-64000000D03*
X20975000Y-64250000D03*
X28525000Y-64500000D03*
X20975000Y-64750000D03*
X28525000Y-65000000D03*
X20975000Y-65250000D03*
X28525000Y-65500000D03*
X20975000Y-65750000D03*
X28525000Y-66000000D03*
X20975000Y-66250000D03*
X28525000Y-66500000D03*
X20975000Y-66750000D03*
X28525000Y-67000000D03*
X20975000Y-67250000D03*
X28525000Y-67500000D03*
X20975000Y-67750000D03*
X28525000Y-68000000D03*
X20975000Y-70250000D03*
X28525000Y-70500000D03*
X20975000Y-70750000D03*
X28525000Y-71000000D03*
X20975000Y-71250000D03*
X28525000Y-71500000D03*
X20975000Y-71750000D03*
X28525000Y-72000000D03*
X20975000Y-72250000D03*
%TD*%
D10*
%TO.C,C4*%
X34000000Y-71725000D03*
X34000000Y-73275000D03*
%TD*%
%TO.C,C11*%
X31000000Y-71715000D03*
X31000000Y-73265000D03*
%TD*%
%TO.C,C9*%
X76000000Y-38225000D03*
X76000000Y-39775000D03*
%TD*%
D14*
%TO.C,C7*%
X68000000Y-39775000D03*
X68000000Y-38225000D03*
%TD*%
D15*
%TO.C,C1*%
X61225000Y-37000000D03*
X62775000Y-37000000D03*
%TD*%
D16*
%TO.C,R3*%
X86000000Y-28825000D03*
X86000000Y-27175000D03*
%TD*%
D17*
%TO.C,J3*%
X21925000Y-40200000D03*
X21925000Y-41300000D03*
X21925000Y-42400000D03*
X21925000Y-43500000D03*
X21925000Y-44600000D03*
X21925000Y-45700000D03*
X21925000Y-46800000D03*
X21925000Y-47900000D03*
D18*
X32725000Y-37750000D03*
D19*
X31150000Y-49037500D03*
D20*
X29650000Y-49375000D03*
D21*
X22050000Y-49100000D03*
D22*
X22050000Y-37750000D03*
D23*
X30300000Y-37425000D03*
%TD*%
D24*
%TO.C,SW2*%
X23450000Y-33750000D03*
X23450000Y-30750000D03*
X23450000Y-29250000D03*
D25*
X22750000Y-35150000D03*
X22750000Y-27850000D03*
X20650000Y-35150000D03*
X20650000Y-27850000D03*
%TD*%
D26*
%TO.C,R6*%
X62825000Y-45500000D03*
X61175000Y-45500000D03*
%TD*%
D27*
%TO.C,C6*%
X71750000Y-39887500D03*
X71750000Y-38112500D03*
%TD*%
D10*
%TO.C,C8*%
X77500000Y-38225000D03*
X77500000Y-39775000D03*
%TD*%
%TO.C,C2*%
X28500000Y-34225000D03*
X28500000Y-35775000D03*
%TD*%
D28*
%TO.C,SW1*%
X32250000Y-23450000D03*
X35250000Y-23450000D03*
X36750000Y-23450000D03*
D29*
X30850000Y-20650000D03*
X30850000Y-22750000D03*
X38150000Y-20650000D03*
X38150000Y-22750000D03*
%TD*%
D30*
%TO.C,R9*%
X69750000Y-38175000D03*
X69750000Y-39825000D03*
%TD*%
D26*
%TO.C,R5*%
X62825000Y-47000000D03*
X61175000Y-47000000D03*
%TD*%
D30*
%TO.C,R1*%
X61250000Y-49225000D03*
X61250000Y-50875000D03*
%TD*%
%TO.C,R8*%
X30000000Y-34175000D03*
X30000000Y-35825000D03*
%TD*%
D31*
%TO.C,U4*%
X79470000Y-36890000D03*
X79970000Y-36890000D03*
X80470000Y-36890000D03*
X80970000Y-36890000D03*
X81470000Y-36890000D03*
X81470000Y-41290000D03*
X80970000Y-41290000D03*
X80470000Y-41290000D03*
X79970000Y-41290000D03*
X79470000Y-41290000D03*
%TD*%
D30*
%TO.C,R2*%
X62750000Y-49225000D03*
X62750000Y-50875000D03*
%TD*%
D16*
%TO.C,R4*%
X84500000Y-28825000D03*
X84500000Y-27175000D03*
%TD*%
D32*
%TO.C,U3*%
X71605000Y-48260000D03*
X69805000Y-48260000D03*
X68005000Y-48260000D03*
D33*
X66830000Y-45285000D03*
D32*
X68005000Y-42310000D03*
X69805000Y-42310000D03*
X71605000Y-42310000D03*
D33*
X72780000Y-45285000D03*
D34*
X69805000Y-45285000D03*
%TD*%
D10*
%TO.C,C3*%
X27000000Y-34225000D03*
X27000000Y-35775000D03*
%TD*%
%TO.C,C10*%
X35500000Y-71725000D03*
X35500000Y-73275000D03*
%TD*%
D35*
%TO.C,U1*%
X61100000Y-38932500D03*
X62050000Y-38932500D03*
X63000000Y-38932500D03*
X63000000Y-41207500D03*
X61100000Y-41207500D03*
%TD*%
M02*
