%TF.GenerationSoftware,KiCad,Pcbnew,(5.99.0-10407-g1e8b23402c)*%
%TF.CreationDate,2021-07-10T11:28:42-06:00*%
%TF.ProjectId,lobby,6c6f6262-792e-46b6-9963-61645f706362,rev?*%
%TF.SameCoordinates,Original*%
%TF.FileFunction,Soldermask,Top*%
%TF.FilePolarity,Negative*%
%FSLAX46Y46*%
G04 Gerber Fmt 4.6, Leading zero omitted, Abs format (unit mm)*
G04 Created by KiCad (PCBNEW (5.99.0-10407-g1e8b23402c)) date 2021-07-10 11:28:42*
%MOMM*%
%LPD*%
G01*
G04 APERTURE LIST*
G04 Aperture macros list*
%AMFreePoly0*
4,1,9,1.450000,0.000000,2.150000,0.000000,2.150000,-1.100000,0.750000,-1.100000,0.750000,-1.800000,-0.500000,-1.800000,-0.500000,0.500000,1.450000,0.500000,1.450000,0.000000,1.450000,0.000000,$1*%
%AMFreePoly1*
4,1,9,0.500000,-1.800000,-0.750000,-1.800000,-0.750000,-1.100000,-2.150000,-1.100000,-2.150000,0.000000,-1.450000,0.000000,-1.450000,0.500000,0.500000,0.500000,0.500000,-1.800000,0.500000,-1.800000,$1*%
G04 Aperture macros list end*
%ADD10R,1.700000X1.700000*%
%ADD11O,1.700000X1.700000*%
%ADD12C,2.700000*%
%ADD13R,1.140000X0.200000*%
%ADD14R,1.400000X0.300000*%
%ADD15FreePoly0,270.000000*%
%ADD16FreePoly1,270.000000*%
%ADD17R,0.200000X0.700000*%
%ADD18C,6.100000*%
%ADD19C,1.300000*%
%ADD20C,1.800000*%
G04 APERTURE END LIST*
D10*
%TO.C,J1*%
X37263646Y-28310153D03*
D11*
X34723646Y-28310153D03*
X37263646Y-30850153D03*
X34723646Y-30850153D03*
%TD*%
D10*
%TO.C,J2*%
X89113646Y-24720153D03*
D11*
X89113646Y-22180153D03*
X86573646Y-24720153D03*
X86573646Y-22180153D03*
X84033646Y-24720153D03*
X84033646Y-22180153D03*
X81493646Y-24720153D03*
X81493646Y-22180153D03*
%TD*%
D12*
%TO.C,H1*%
X69750000Y-63000000D03*
%TD*%
D13*
%TO.C,Module2*%
X84680000Y-52200000D03*
X87320000Y-52200000D03*
X84680000Y-52600000D03*
X87320000Y-52600000D03*
X84680000Y-53000000D03*
X87320000Y-53000000D03*
X84680000Y-53400000D03*
X87320000Y-53400000D03*
X84680000Y-53800000D03*
X87320000Y-53800000D03*
X84680000Y-54200000D03*
X87320000Y-54200000D03*
X84680000Y-54600000D03*
X87320000Y-54600000D03*
X84680000Y-55000000D03*
X87320000Y-55000000D03*
X84680000Y-55400000D03*
X87320000Y-55400000D03*
X84680000Y-55800000D03*
X87320000Y-55800000D03*
X84680000Y-56200000D03*
X87320000Y-56200000D03*
X84680000Y-56600000D03*
X87320000Y-56600000D03*
X84680000Y-57000000D03*
X87320000Y-57000000D03*
X84680000Y-57400000D03*
X87320000Y-57400000D03*
X84680000Y-57800000D03*
X87320000Y-57800000D03*
X84680000Y-58200000D03*
X87320000Y-58200000D03*
X84680000Y-58600000D03*
X87320000Y-58600000D03*
X84680000Y-59000000D03*
X87320000Y-59000000D03*
X84680000Y-59400000D03*
X87320000Y-59400000D03*
X84680000Y-59800000D03*
X87320000Y-59800000D03*
X84680000Y-60200000D03*
X87320000Y-60200000D03*
X84680000Y-60600000D03*
X87320000Y-60600000D03*
X84680000Y-61000000D03*
X87320000Y-61000000D03*
X84680000Y-61400000D03*
X87320000Y-61400000D03*
X84680000Y-61800000D03*
X87320000Y-61800000D03*
X84680000Y-62200000D03*
X87320000Y-62200000D03*
X84680000Y-62600000D03*
X87320000Y-62600000D03*
X84680000Y-63000000D03*
X87320000Y-63000000D03*
X84680000Y-63400000D03*
X87320000Y-63400000D03*
X84680000Y-63800000D03*
X87320000Y-63800000D03*
X84680000Y-64200000D03*
X87320000Y-64200000D03*
X84680000Y-64600000D03*
X87320000Y-64600000D03*
X84680000Y-65000000D03*
X87320000Y-65000000D03*
X84680000Y-65400000D03*
X87320000Y-65400000D03*
X84680000Y-65800000D03*
X87320000Y-65800000D03*
X84680000Y-66200000D03*
X87320000Y-66200000D03*
X84680000Y-66600000D03*
X87320000Y-66600000D03*
X84680000Y-67000000D03*
X87320000Y-67000000D03*
X84680000Y-67400000D03*
X87320000Y-67400000D03*
X84680000Y-67800000D03*
X87320000Y-67800000D03*
X84680000Y-68200000D03*
X87320000Y-68200000D03*
X84680000Y-68600000D03*
X87320000Y-68600000D03*
X84680000Y-69000000D03*
X87320000Y-69000000D03*
X84680000Y-69400000D03*
X87320000Y-69400000D03*
X84680000Y-69800000D03*
X87320000Y-69800000D03*
X84680000Y-70200000D03*
X87320000Y-70200000D03*
X84680000Y-70600000D03*
X87320000Y-70600000D03*
X84680000Y-71000000D03*
X87320000Y-71000000D03*
X84680000Y-71400000D03*
X87320000Y-71400000D03*
X84680000Y-71800000D03*
X87320000Y-71800000D03*
%TD*%
%TO.C,Module3*%
X20780000Y-30700000D03*
X23420000Y-30700000D03*
X20780000Y-31100000D03*
X23420000Y-31100000D03*
X20780000Y-31500000D03*
X23420000Y-31500000D03*
X20780000Y-31900000D03*
X23420000Y-31900000D03*
X20780000Y-32300000D03*
X23420000Y-32300000D03*
X20780000Y-32700000D03*
X23420000Y-32700000D03*
X20780000Y-33100000D03*
X23420000Y-33100000D03*
X20780000Y-33500000D03*
X23420000Y-33500000D03*
X20780000Y-33900000D03*
X23420000Y-33900000D03*
X20780000Y-34300000D03*
X23420000Y-34300000D03*
X20780000Y-34700000D03*
X23420000Y-34700000D03*
X20780000Y-35100000D03*
X23420000Y-35100000D03*
X20780000Y-35500000D03*
X23420000Y-35500000D03*
X20780000Y-35900000D03*
X23420000Y-35900000D03*
X20780000Y-36300000D03*
X23420000Y-36300000D03*
X20780000Y-36700000D03*
X23420000Y-36700000D03*
X20780000Y-37100000D03*
X23420000Y-37100000D03*
X20780000Y-37500000D03*
X23420000Y-37500000D03*
X20780000Y-37900000D03*
X23420000Y-37900000D03*
X20780000Y-38300000D03*
X23420000Y-38300000D03*
X20780000Y-38700000D03*
X23420000Y-38700000D03*
X20780000Y-39100000D03*
X23420000Y-39100000D03*
X20780000Y-39500000D03*
X23420000Y-39500000D03*
X20780000Y-39900000D03*
X23420000Y-39900000D03*
X20780000Y-40300000D03*
X23420000Y-40300000D03*
X20780000Y-40700000D03*
X23420000Y-40700000D03*
X20780000Y-41100000D03*
X23420000Y-41100000D03*
X20780000Y-41500000D03*
X23420000Y-41500000D03*
X20780000Y-41900000D03*
X23420000Y-41900000D03*
X20780000Y-42300000D03*
X23420000Y-42300000D03*
X20780000Y-42700000D03*
X23420000Y-42700000D03*
X20780000Y-43100000D03*
X23420000Y-43100000D03*
X20780000Y-43500000D03*
X23420000Y-43500000D03*
X20780000Y-43900000D03*
X23420000Y-43900000D03*
X20780000Y-44300000D03*
X23420000Y-44300000D03*
X20780000Y-44700000D03*
X23420000Y-44700000D03*
X20780000Y-45100000D03*
X23420000Y-45100000D03*
X20780000Y-45500000D03*
X23420000Y-45500000D03*
X20780000Y-45900000D03*
X23420000Y-45900000D03*
X20780000Y-46300000D03*
X23420000Y-46300000D03*
X20780000Y-46700000D03*
X23420000Y-46700000D03*
X20780000Y-47100000D03*
X23420000Y-47100000D03*
X20780000Y-47500000D03*
X23420000Y-47500000D03*
X20780000Y-47900000D03*
X23420000Y-47900000D03*
X20780000Y-48300000D03*
X23420000Y-48300000D03*
X20780000Y-48700000D03*
X23420000Y-48700000D03*
X20780000Y-49100000D03*
X23420000Y-49100000D03*
X20780000Y-49500000D03*
X23420000Y-49500000D03*
X20780000Y-49900000D03*
X23420000Y-49900000D03*
X20780000Y-50300000D03*
X23420000Y-50300000D03*
%TD*%
D14*
%TO.C,J4*%
X24700000Y-54750000D03*
X24700000Y-55250000D03*
X24700000Y-55750000D03*
X24700000Y-56250000D03*
X24700000Y-56750000D03*
X24700000Y-57250000D03*
X24700000Y-57750000D03*
X24700000Y-58250000D03*
X24700000Y-58750000D03*
X24700000Y-59250000D03*
X24700000Y-59750000D03*
X24700000Y-60250000D03*
X24700000Y-60750000D03*
X24700000Y-61250000D03*
X24700000Y-61750000D03*
X24700000Y-62250000D03*
X24700000Y-62750000D03*
X24700000Y-63250000D03*
X24700000Y-63750000D03*
X24700000Y-64250000D03*
X24700000Y-64750000D03*
X24700000Y-65250000D03*
D15*
X23900000Y-66200000D03*
D16*
X23900000Y-53800000D03*
%TD*%
D12*
%TO.C,H2*%
X98000000Y-63000000D03*
%TD*%
D17*
%TO.C,Module1*%
X65050000Y-27000000D03*
X65050000Y-30080000D03*
X64650000Y-27000000D03*
X64650000Y-30080000D03*
X64250000Y-27000000D03*
X64250000Y-30080000D03*
X63850000Y-27000000D03*
X63850000Y-30080000D03*
X63450000Y-27000000D03*
X63450000Y-30080000D03*
X63050000Y-27000000D03*
X63050000Y-30080000D03*
X62650000Y-27000000D03*
X62650000Y-30080000D03*
X62250000Y-27000000D03*
X62250000Y-30080000D03*
X61850000Y-27000000D03*
X61850000Y-30080000D03*
X61450000Y-27000000D03*
X61450000Y-30080000D03*
X61050000Y-27000000D03*
X61050000Y-30080000D03*
X60650000Y-27000000D03*
X60650000Y-30080000D03*
X60250000Y-27000000D03*
X60250000Y-30080000D03*
X59850000Y-27000000D03*
X59850000Y-30080000D03*
X59450000Y-27000000D03*
X59450000Y-30080000D03*
X59050000Y-27000000D03*
X59050000Y-30080000D03*
X58650000Y-27000000D03*
X58650000Y-30080000D03*
X58250000Y-27000000D03*
X58250000Y-30080000D03*
X57850000Y-27000000D03*
X57850000Y-30080000D03*
X57450000Y-27000000D03*
X57450000Y-30080000D03*
X57050000Y-27000000D03*
X57050000Y-30080000D03*
X56650000Y-27000000D03*
X56650000Y-30080000D03*
X56250000Y-27000000D03*
X56250000Y-30080000D03*
X55850000Y-27000000D03*
X55850000Y-30080000D03*
X55450000Y-27000000D03*
X55450000Y-30080000D03*
X55050000Y-27000000D03*
X55050000Y-30080000D03*
X54650000Y-27000000D03*
X54650000Y-30080000D03*
X54250000Y-27000000D03*
X54250000Y-30080000D03*
X53850000Y-27000000D03*
X53850000Y-30080000D03*
X53450000Y-27000000D03*
X53450000Y-30080000D03*
X53050000Y-27000000D03*
X53050000Y-30080000D03*
X52650000Y-27000000D03*
X52650000Y-30080000D03*
X52250000Y-27000000D03*
X52250000Y-30080000D03*
X51850000Y-27000000D03*
X51850000Y-30080000D03*
X51450000Y-27000000D03*
X51450000Y-30080000D03*
X51050000Y-27000000D03*
X51050000Y-30080000D03*
X50650000Y-27000000D03*
X50650000Y-30080000D03*
X50250000Y-27000000D03*
X50250000Y-30080000D03*
X49850000Y-27000000D03*
X49850000Y-30080000D03*
X49450000Y-27000000D03*
X49450000Y-30080000D03*
X49050000Y-27000000D03*
X49050000Y-30080000D03*
X48650000Y-27000000D03*
X48650000Y-30080000D03*
X48250000Y-27000000D03*
X48250000Y-30080000D03*
X47850000Y-27000000D03*
X47850000Y-30080000D03*
X47450000Y-27000000D03*
X47450000Y-30080000D03*
X47050000Y-27000000D03*
X47050000Y-30080000D03*
X46650000Y-27000000D03*
X46650000Y-30080000D03*
X46250000Y-27000000D03*
X46250000Y-30080000D03*
X45850000Y-27000000D03*
X45850000Y-30080000D03*
X45450000Y-27000000D03*
X45450000Y-30080000D03*
X65050000Y-60920000D03*
X65050000Y-64000000D03*
X64650000Y-60920000D03*
X64650000Y-64000000D03*
X64250000Y-60920000D03*
X64250000Y-64000000D03*
X63850000Y-60920000D03*
X63850000Y-64000000D03*
X63450000Y-60920000D03*
X63450000Y-64000000D03*
X63050000Y-60920000D03*
X63050000Y-64000000D03*
X62650000Y-60920000D03*
X62650000Y-64000000D03*
X62250000Y-60920000D03*
X62250000Y-64000000D03*
X61850000Y-60920000D03*
X61850000Y-64000000D03*
X61450000Y-60920000D03*
X61450000Y-64000000D03*
X61050000Y-60920000D03*
X61050000Y-64000000D03*
X60650000Y-60920000D03*
X60650000Y-64000000D03*
X60250000Y-60920000D03*
X60250000Y-64000000D03*
X59850000Y-60920000D03*
X59850000Y-64000000D03*
X59450000Y-60920000D03*
X59450000Y-64000000D03*
X59050000Y-60920000D03*
X59050000Y-64000000D03*
X58650000Y-60920000D03*
X58650000Y-64000000D03*
X58250000Y-60920000D03*
X58250000Y-64000000D03*
X57850000Y-60920000D03*
X57850000Y-64000000D03*
X57450000Y-60920000D03*
X57450000Y-64000000D03*
X57050000Y-60920000D03*
X57050000Y-64000000D03*
X56650000Y-60920000D03*
X56650000Y-64000000D03*
X56250000Y-60920000D03*
X56250000Y-64000000D03*
X55850000Y-60920000D03*
X55850000Y-64000000D03*
X55450000Y-60920000D03*
X55450000Y-64000000D03*
X55050000Y-60920000D03*
X55050000Y-64000000D03*
X54650000Y-60920000D03*
X54650000Y-64000000D03*
X54250000Y-60920000D03*
X54250000Y-64000000D03*
X53850000Y-60920000D03*
X53850000Y-64000000D03*
X53450000Y-60920000D03*
X53450000Y-64000000D03*
X53050000Y-60920000D03*
X53050000Y-64000000D03*
X52650000Y-60920000D03*
X52650000Y-64000000D03*
X52250000Y-60920000D03*
X52250000Y-64000000D03*
X51850000Y-60920000D03*
X51850000Y-64000000D03*
X51450000Y-60920000D03*
X51450000Y-64000000D03*
X51050000Y-60920000D03*
X51050000Y-64000000D03*
X50650000Y-60920000D03*
X50650000Y-64000000D03*
X50250000Y-60920000D03*
X50250000Y-64000000D03*
X49850000Y-60920000D03*
X49850000Y-64000000D03*
X49450000Y-60920000D03*
X49450000Y-64000000D03*
X49050000Y-60920000D03*
X49050000Y-64000000D03*
X48650000Y-60920000D03*
X48650000Y-64000000D03*
X48250000Y-60920000D03*
X48250000Y-64000000D03*
X47850000Y-60920000D03*
X47850000Y-64000000D03*
X47450000Y-60920000D03*
X47450000Y-64000000D03*
X47050000Y-60920000D03*
X47050000Y-64000000D03*
X46650000Y-60920000D03*
X46650000Y-64000000D03*
X46250000Y-60920000D03*
X46250000Y-64000000D03*
X45850000Y-60920000D03*
X45850000Y-64000000D03*
X45450000Y-60920000D03*
X45450000Y-64000000D03*
D18*
X28750000Y-29000000D03*
X76750000Y-62000000D03*
%TD*%
D19*
%TO.C,U2*%
X26250000Y-53000000D03*
D20*
X26250000Y-73000000D03*
%TD*%
M02*
