%TF.GenerationSoftware,KiCad,Pcbnew,(5.99.0-10407-g1e8b23402c)*%
%TF.CreationDate,2021-07-06T19:16:03-06:00*%
%TF.ProjectId,mezzanine,6d657a7a-616e-4696-9e65-2e6b69636164,rev?*%
%TF.SameCoordinates,Original*%
%TF.FileFunction,Soldermask,Bot*%
%TF.FilePolarity,Negative*%
%FSLAX46Y46*%
G04 Gerber Fmt 4.6, Leading zero omitted, Abs format (unit mm)*
G04 Created by KiCad (PCBNEW (5.99.0-10407-g1e8b23402c)) date 2021-07-06 19:16:03*
%MOMM*%
%LPD*%
G01*
G04 APERTURE LIST*
G04 Aperture macros list*
%AMRoundRect*
0 Rectangle with rounded corners*
0 $1 Rounding radius*
0 $2 $3 $4 $5 $6 $7 $8 $9 X,Y pos of 4 corners*
0 Add a 4 corners polygon primitive as box body*
4,1,4,$2,$3,$4,$5,$6,$7,$8,$9,$2,$3,0*
0 Add four circle primitives for the rounded corners*
1,1,$1+$1,$2,$3*
1,1,$1+$1,$4,$5*
1,1,$1+$1,$6,$7*
1,1,$1+$1,$8,$9*
0 Add four rect primitives between the rounded corners*
20,1,$1+$1,$2,$3,$4,$5,0*
20,1,$1+$1,$4,$5,$6,$7,0*
20,1,$1+$1,$6,$7,$8,$9,0*
20,1,$1+$1,$8,$9,$2,$3,0*%
G04 Aperture macros list end*
%ADD10C,2.700000*%
%ADD11C,0.600000*%
%ADD12RoundRect,0.575000X0.000000X-0.225000X0.000000X-0.225000X0.000000X0.225000X0.000000X0.225000X0*%
%ADD13RoundRect,0.500000X0.000000X-0.400000X0.000000X-0.400000X0.000000X0.400000X0.000000X0.400000X0*%
%ADD14C,3.200000*%
%ADD15RoundRect,0.250500X0.499500X-0.499500X0.499500X0.499500X-0.499500X0.499500X-0.499500X-0.499500X0*%
%ADD16C,1.500000*%
%ADD17C,2.500000*%
%ADD18C,3.300000*%
%ADD19R,0.550000X0.300000*%
%ADD20R,0.550000X0.400000*%
%ADD21R,0.660000X0.230000*%
%ADD22R,0.660000X0.350000*%
G04 APERTURE END LIST*
D10*
%TO.C,H2*%
X23500000Y-72500000D03*
%TD*%
%TO.C,H1*%
X23500000Y-23500000D03*
%TD*%
D11*
%TO.C,J3*%
X47600000Y-70980000D03*
X47200000Y-70180000D03*
X46800000Y-70980000D03*
X46400000Y-70180000D03*
X46000000Y-70980000D03*
X45600000Y-70180000D03*
X45200000Y-70980000D03*
X44800000Y-70180000D03*
X44400000Y-70980000D03*
D12*
X42900000Y-69600000D03*
X42900000Y-74775000D03*
X49100000Y-69600000D03*
X49100000Y-74775000D03*
%TD*%
D10*
%TO.C,H3*%
X81500000Y-23500000D03*
%TD*%
D11*
%TO.C,J2*%
X28310000Y-70890000D03*
X34090000Y-70890000D03*
D13*
X26880000Y-70390000D03*
X35520000Y-74970000D03*
X35520000Y-70390000D03*
X26880000Y-74970000D03*
%TD*%
D11*
%TO.C,J4*%
X61100000Y-70980000D03*
X60700000Y-70180000D03*
X60300000Y-70980000D03*
X59900000Y-70180000D03*
X59500000Y-70980000D03*
X59100000Y-70180000D03*
X58700000Y-70980000D03*
X58300000Y-70180000D03*
X57900000Y-70980000D03*
D12*
X56400000Y-74775000D03*
X56400000Y-69600000D03*
X62600000Y-74775000D03*
X62600000Y-69600000D03*
%TD*%
D14*
%TO.C,U5*%
X97000000Y-24535000D03*
X97000000Y-35965000D03*
D15*
X88110000Y-35965000D03*
D16*
X90650000Y-34695000D03*
X88110000Y-33425000D03*
X90650000Y-32155000D03*
X88110000Y-30885000D03*
X90650000Y-29615000D03*
X88110000Y-28345000D03*
X90650000Y-27075000D03*
X88110000Y-25805000D03*
X90650000Y-24535000D03*
X93170000Y-35965000D03*
X94440000Y-33425000D03*
X94440000Y-27075000D03*
X93170000Y-24535000D03*
X101060000Y-36880000D03*
X101060000Y-34340000D03*
X101060000Y-26160000D03*
X101060000Y-23620000D03*
D17*
X93950000Y-38125000D03*
X93950000Y-22375000D03*
%TD*%
D18*
%TO.C,J1*%
X97700000Y-42300000D03*
X97700000Y-55700000D03*
%TD*%
D19*
%TO.C,U2*%
X88615000Y-65000000D03*
X88615000Y-64500000D03*
D20*
X88615000Y-64000000D03*
D19*
X88615000Y-63500000D03*
X88615000Y-63000000D03*
X89385000Y-63000000D03*
X89385000Y-63500000D03*
D20*
X89385000Y-64000000D03*
D19*
X89385000Y-64500000D03*
X89385000Y-65000000D03*
%TD*%
D21*
%TO.C,Module1*%
X87355000Y-52200000D03*
X84645000Y-52200000D03*
X87355000Y-52600000D03*
X84645000Y-52600000D03*
X87355000Y-53000000D03*
X84645000Y-53000000D03*
X87355000Y-53400000D03*
X84645000Y-53400000D03*
X87355000Y-53800000D03*
X84645000Y-53800000D03*
X87355000Y-54200000D03*
X84645000Y-54200000D03*
X87355000Y-54600000D03*
X84645000Y-54600000D03*
X87355000Y-55000000D03*
X84645000Y-55000000D03*
X87355000Y-55400000D03*
X84645000Y-55400000D03*
X87355000Y-55800000D03*
X84645000Y-55800000D03*
X87355000Y-56200000D03*
X84645000Y-56200000D03*
X87355000Y-56600000D03*
X84645000Y-56600000D03*
X87355000Y-57000000D03*
X84645000Y-57000000D03*
X87355000Y-57400000D03*
X84645000Y-57400000D03*
X87355000Y-57800000D03*
X84645000Y-57800000D03*
X87355000Y-58200000D03*
X84645000Y-58200000D03*
X87355000Y-58600000D03*
X84645000Y-58600000D03*
X87355000Y-59000000D03*
X84645000Y-59000000D03*
X87355000Y-59400000D03*
X84645000Y-59400000D03*
X87355000Y-59800000D03*
X84645000Y-59800000D03*
X87355000Y-60200000D03*
X84645000Y-60200000D03*
X87355000Y-60600000D03*
X84645000Y-60600000D03*
X87355000Y-61000000D03*
X84645000Y-61000000D03*
X87355000Y-61400000D03*
X84645000Y-61400000D03*
X87355000Y-61800000D03*
X84645000Y-61800000D03*
X87355000Y-62200000D03*
X84645000Y-62200000D03*
X87355000Y-62600000D03*
X84645000Y-62600000D03*
X87355000Y-63000000D03*
X84645000Y-63000000D03*
X87355000Y-63400000D03*
X84645000Y-63400000D03*
X87355000Y-63800000D03*
X84645000Y-63800000D03*
X87355000Y-64200000D03*
X84645000Y-64200000D03*
X87355000Y-64600000D03*
X84645000Y-64600000D03*
X87355000Y-65000000D03*
X84645000Y-65000000D03*
X87355000Y-65400000D03*
X84645000Y-65400000D03*
X87355000Y-65800000D03*
X84645000Y-65800000D03*
X87355000Y-66200000D03*
X84645000Y-66200000D03*
X87355000Y-66600000D03*
X84645000Y-66600000D03*
X87355000Y-67000000D03*
X84645000Y-67000000D03*
X87355000Y-67400000D03*
X84645000Y-67400000D03*
X87355000Y-67800000D03*
X84645000Y-67800000D03*
X87355000Y-68200000D03*
X84645000Y-68200000D03*
X87355000Y-68600000D03*
X84645000Y-68600000D03*
X87355000Y-69000000D03*
X84645000Y-69000000D03*
X87355000Y-69400000D03*
X84645000Y-69400000D03*
X87355000Y-69800000D03*
X84645000Y-69800000D03*
X87355000Y-70200000D03*
X84645000Y-70200000D03*
X87355000Y-70600000D03*
X84645000Y-70600000D03*
X87355000Y-71000000D03*
X84645000Y-71000000D03*
X87355000Y-71400000D03*
X84645000Y-71400000D03*
X87355000Y-71800000D03*
X84645000Y-71800000D03*
D22*
X84645000Y-51740000D03*
X87355000Y-51740000D03*
D21*
X87355000Y-72200000D03*
X84645000Y-72200000D03*
%TD*%
%TO.C,Module2*%
X23455000Y-30700000D03*
X20745000Y-30700000D03*
X23455000Y-31100000D03*
X20745000Y-31100000D03*
X23455000Y-31500000D03*
X20745000Y-31500000D03*
X23455000Y-31900000D03*
X20745000Y-31900000D03*
X23455000Y-32300000D03*
X20745000Y-32300000D03*
X23455000Y-32700000D03*
X20745000Y-32700000D03*
X23455000Y-33100000D03*
X20745000Y-33100000D03*
X23455000Y-33500000D03*
X20745000Y-33500000D03*
X23455000Y-33900000D03*
X20745000Y-33900000D03*
X23455000Y-34300000D03*
X20745000Y-34300000D03*
X23455000Y-34700000D03*
X20745000Y-34700000D03*
X23455000Y-35100000D03*
X20745000Y-35100000D03*
X23455000Y-35500000D03*
X20745000Y-35500000D03*
X23455000Y-35900000D03*
X20745000Y-35900000D03*
X23455000Y-36300000D03*
X20745000Y-36300000D03*
X23455000Y-36700000D03*
X20745000Y-36700000D03*
X23455000Y-37100000D03*
X20745000Y-37100000D03*
X23455000Y-37500000D03*
X20745000Y-37500000D03*
X23455000Y-37900000D03*
X20745000Y-37900000D03*
X23455000Y-38300000D03*
X20745000Y-38300000D03*
X23455000Y-38700000D03*
X20745000Y-38700000D03*
X23455000Y-39100000D03*
X20745000Y-39100000D03*
X23455000Y-39500000D03*
X20745000Y-39500000D03*
X23455000Y-39900000D03*
X20745000Y-39900000D03*
X23455000Y-40300000D03*
X20745000Y-40300000D03*
X23455000Y-40700000D03*
X20745000Y-40700000D03*
X23455000Y-41100000D03*
X20745000Y-41100000D03*
X23455000Y-41500000D03*
X20745000Y-41500000D03*
X23455000Y-41900000D03*
X20745000Y-41900000D03*
X23455000Y-42300000D03*
X20745000Y-42300000D03*
X23455000Y-42700000D03*
X20745000Y-42700000D03*
X23455000Y-43100000D03*
X20745000Y-43100000D03*
X23455000Y-43500000D03*
X20745000Y-43500000D03*
X23455000Y-43900000D03*
X20745000Y-43900000D03*
X23455000Y-44300000D03*
X20745000Y-44300000D03*
X23455000Y-44700000D03*
X20745000Y-44700000D03*
X23455000Y-45100000D03*
X20745000Y-45100000D03*
X23455000Y-45500000D03*
X20745000Y-45500000D03*
X23455000Y-45900000D03*
X20745000Y-45900000D03*
X23455000Y-46300000D03*
X20745000Y-46300000D03*
X23455000Y-46700000D03*
X20745000Y-46700000D03*
X23455000Y-47100000D03*
X20745000Y-47100000D03*
X23455000Y-47500000D03*
X20745000Y-47500000D03*
X23455000Y-47900000D03*
X20745000Y-47900000D03*
X23455000Y-48300000D03*
X20745000Y-48300000D03*
X23455000Y-48700000D03*
X20745000Y-48700000D03*
X23455000Y-49100000D03*
X20745000Y-49100000D03*
X23455000Y-49500000D03*
X20745000Y-49500000D03*
X23455000Y-49900000D03*
X20745000Y-49900000D03*
X23455000Y-50300000D03*
X20745000Y-50300000D03*
X23455000Y-50700000D03*
X20745000Y-50700000D03*
D22*
X23455000Y-30240000D03*
X20745000Y-30240000D03*
%TD*%
D19*
%TO.C,U4*%
X85385000Y-33500000D03*
X85385000Y-34000000D03*
D20*
X85385000Y-34500000D03*
D19*
X85385000Y-35000000D03*
X85385000Y-35500000D03*
X84615000Y-35500000D03*
X84615000Y-35000000D03*
D20*
X84615000Y-34500000D03*
D19*
X84615000Y-34000000D03*
X84615000Y-33500000D03*
%TD*%
M02*
