%TF.GenerationSoftware,KiCad,Pcbnew,(5.99.0-10407-g1e8b23402c)*%
%TF.CreationDate,2021-07-06T19:16:03-06:00*%
%TF.ProjectId,mezzanine,6d657a7a-616e-4696-9e65-2e6b69636164,rev?*%
%TF.SameCoordinates,Original*%
%TF.FileFunction,Profile,NP*%
%FSLAX46Y46*%
G04 Gerber Fmt 4.6, Leading zero omitted, Abs format (unit mm)*
G04 Created by KiCad (PCBNEW (5.99.0-10407-g1e8b23402c)) date 2021-07-06 19:16:03*
%MOMM*%
%LPD*%
G01*
G04 APERTURE LIST*
%TA.AperFunction,Profile*%
%ADD10C,0.100000*%
%TD*%
%TA.AperFunction,Profile*%
%ADD11C,0.030000*%
%TD*%
G04 APERTURE END LIST*
D10*
X105000000Y-73000000D02*
G75*
G02*
X102000000Y-76000000I-3000000J0D01*
G01*
X81240000Y-28530000D02*
X81240000Y-62530000D01*
X81240000Y-62530000D02*
G75*
G02*
X77240000Y-66530000I-4000000J0D01*
G01*
X23000000Y-20000000D02*
X102000000Y-20000000D01*
X20000000Y-73000000D02*
X20000000Y-23000000D01*
X24240000Y-62530000D02*
G75*
G03*
X28240000Y-66530000I4000000J0D01*
G01*
X105000000Y-73000000D02*
X105000000Y-23000000D01*
X77240000Y-24530000D02*
G75*
G02*
X81240000Y-28530000I0J-4000000D01*
G01*
X20000000Y-73000000D02*
G75*
G03*
X23000000Y-76000000I3000000J0D01*
G01*
X20000000Y-23000000D02*
G75*
G02*
X23000000Y-20000000I3000000J0D01*
G01*
X77240000Y-66530000D02*
X28240000Y-66530000D01*
X28240000Y-24530000D02*
X77240000Y-24530000D01*
X105000000Y-23000000D02*
G75*
G03*
X102000000Y-20000000I-3000000J0D01*
G01*
X24240000Y-28530000D02*
G75*
G02*
X28240000Y-24530000I4000000J0D01*
G01*
X24240000Y-62530000D02*
X24240000Y-28530000D01*
X23000000Y-76000000D02*
X102000000Y-76000000D01*
D11*
%TO.C,J3*%
X49425000Y-69875000D02*
X49425000Y-69325000D01*
X48775000Y-74500000D02*
X48775000Y-75050000D01*
X42575000Y-74500000D02*
X42575000Y-75050000D01*
X42570000Y-69875000D02*
X42570000Y-69325000D01*
X43225000Y-75050000D02*
X43225000Y-74500000D01*
X49425000Y-75050000D02*
X49425000Y-74500000D01*
X43230000Y-69325000D02*
X43230000Y-69875000D01*
X48775000Y-69325000D02*
X48775000Y-69875000D01*
X48775000Y-75050000D02*
G75*
G03*
X49425000Y-75050000I325000J0D01*
G01*
X48775000Y-74500000D02*
G75*
G02*
X49425000Y-74500000I325000J0D01*
G01*
X48775000Y-69875000D02*
G75*
G03*
X49425000Y-69875000I325000J0D01*
G01*
X42570000Y-69325000D02*
G75*
G02*
X43230000Y-69325000I330000J0D01*
G01*
X42570000Y-69875000D02*
G75*
G03*
X43230000Y-69875000I330000J0D01*
G01*
X42575000Y-74500000D02*
G75*
G02*
X43225000Y-74500000I325000J0D01*
G01*
X48775000Y-69325000D02*
G75*
G02*
X49425000Y-69325000I325000J0D01*
G01*
X42575000Y-75050000D02*
G75*
G03*
X43225000Y-75050000I325000J0D01*
G01*
%TO.C,J2*%
X35820000Y-75370000D02*
X35820000Y-74570000D01*
X27180000Y-75370000D02*
X27180000Y-74570000D01*
X35820000Y-70800000D02*
X35820000Y-69990000D01*
X35220000Y-69990000D02*
X35220000Y-70800000D01*
X26580000Y-69990000D02*
X26580000Y-70790000D01*
X27180000Y-70790000D02*
X27180000Y-69990000D01*
X26580000Y-74570000D02*
X26580000Y-75370000D01*
X35220000Y-74570000D02*
X35220000Y-75370000D01*
X35220000Y-75370000D02*
G75*
G03*
X35820000Y-75370000I300000J0D01*
G01*
X26580000Y-74570000D02*
G75*
G02*
X27180000Y-74570000I300000J0D01*
G01*
X27180000Y-69990000D02*
G75*
G03*
X26580000Y-69990000I-300000J0D01*
G01*
X26580000Y-70790000D02*
G75*
G03*
X27180000Y-70790000I300000J0D01*
G01*
X26580000Y-75370000D02*
G75*
G03*
X27180000Y-75370000I300000J0D01*
G01*
X35220000Y-69990000D02*
G75*
G02*
X35820000Y-69990000I300000J0D01*
G01*
X35220000Y-70800000D02*
G75*
G03*
X35820000Y-70800000I300000J0D01*
G01*
X35220000Y-74570000D02*
G75*
G02*
X35820000Y-74570000I300000J0D01*
G01*
%TO.C,J4*%
X62275000Y-69325000D02*
X62275000Y-69875000D01*
X56730000Y-69325000D02*
X56730000Y-69875000D01*
X56070000Y-69875000D02*
X56070000Y-69325000D01*
X62925000Y-69875000D02*
X62925000Y-69325000D01*
X62275000Y-74500000D02*
X62275000Y-75050000D01*
X56725000Y-75050000D02*
X56725000Y-74500000D01*
X62925000Y-75050000D02*
X62925000Y-74500000D01*
X56075000Y-74500000D02*
X56075000Y-75050000D01*
X56070000Y-69325000D02*
G75*
G02*
X56730000Y-69325000I330000J0D01*
G01*
X62275000Y-69875000D02*
G75*
G03*
X62925000Y-69875000I325000J0D01*
G01*
X56075000Y-74500000D02*
G75*
G02*
X56725000Y-74500000I325000J0D01*
G01*
X56075000Y-75050000D02*
G75*
G03*
X56725000Y-75050000I325000J0D01*
G01*
X56070000Y-69875000D02*
G75*
G03*
X56730000Y-69875000I330000J0D01*
G01*
X62275000Y-69325000D02*
G75*
G02*
X62925000Y-69325000I325000J0D01*
G01*
X62275000Y-75050000D02*
G75*
G03*
X62925000Y-75050000I325000J0D01*
G01*
X62275000Y-74500000D02*
G75*
G02*
X62925000Y-74500000I325000J0D01*
G01*
%TD*%
M02*
