%TF.GenerationSoftware,KiCad,Pcbnew,(5.99.0-10407-g1e8b23402c)*%
%TF.CreationDate,2021-06-04T13:11:51-06:00*%
%TF.ProjectId,mezzanine,6d657a7a-616e-4696-9e65-2e6b69636164,rev?*%
%TF.SameCoordinates,Original*%
%TF.FileFunction,Paste,Bot*%
%TF.FilePolarity,Positive*%
%FSLAX46Y46*%
G04 Gerber Fmt 4.6, Leading zero omitted, Abs format (unit mm)*
G04 Created by KiCad (PCBNEW (5.99.0-10407-g1e8b23402c)) date 2021-06-04 13:11:51*
%MOMM*%
%LPD*%
G01*
G04 APERTURE LIST*
%ADD10R,0.550000X0.300000*%
%ADD11R,0.550000X0.400000*%
%ADD12R,0.660000X0.230000*%
G04 APERTURE END LIST*
D10*
%TO.C,U2*%
X88615000Y-65000000D03*
X88615000Y-64500000D03*
D11*
X88615000Y-64000000D03*
D10*
X88615000Y-63500000D03*
X88615000Y-63000000D03*
X89385000Y-63000000D03*
X89385000Y-63500000D03*
D11*
X89385000Y-64000000D03*
D10*
X89385000Y-64500000D03*
X89385000Y-65000000D03*
%TD*%
D12*
%TO.C,Module1*%
X87355000Y-52200000D03*
X84645000Y-52200000D03*
X87355000Y-52600000D03*
X84645000Y-52600000D03*
X87355000Y-53000000D03*
X84645000Y-53000000D03*
X87355000Y-53400000D03*
X84645000Y-53400000D03*
X87355000Y-53800000D03*
X84645000Y-53800000D03*
X87355000Y-54200000D03*
X84645000Y-54200000D03*
X87355000Y-54600000D03*
X84645000Y-54600000D03*
X87355000Y-55000000D03*
X84645000Y-55000000D03*
X87355000Y-55400000D03*
X84645000Y-55400000D03*
X87355000Y-55800000D03*
X84645000Y-55800000D03*
X87355000Y-56200000D03*
X84645000Y-56200000D03*
X87355000Y-56600000D03*
X84645000Y-56600000D03*
X87355000Y-57000000D03*
X84645000Y-57000000D03*
X87355000Y-57400000D03*
X84645000Y-57400000D03*
X87355000Y-57800000D03*
X84645000Y-57800000D03*
X87355000Y-58200000D03*
X84645000Y-58200000D03*
X87355000Y-58600000D03*
X84645000Y-58600000D03*
X87355000Y-59000000D03*
X84645000Y-59000000D03*
X87355000Y-59400000D03*
X84645000Y-59400000D03*
X87355000Y-59800000D03*
X84645000Y-59800000D03*
X87355000Y-60200000D03*
X84645000Y-60200000D03*
X87355000Y-60600000D03*
X84645000Y-60600000D03*
X87355000Y-61000000D03*
X84645000Y-61000000D03*
X87355000Y-61400000D03*
X84645000Y-61400000D03*
X87355000Y-61800000D03*
X84645000Y-61800000D03*
X87355000Y-62200000D03*
X84645000Y-62200000D03*
X87355000Y-62600000D03*
X84645000Y-62600000D03*
X87355000Y-63000000D03*
X84645000Y-63000000D03*
X87355000Y-63400000D03*
X84645000Y-63400000D03*
X87355000Y-63800000D03*
X84645000Y-63800000D03*
X87355000Y-64200000D03*
X84645000Y-64200000D03*
X87355000Y-64600000D03*
X84645000Y-64600000D03*
X87355000Y-65000000D03*
X84645000Y-65000000D03*
X87355000Y-65400000D03*
X84645000Y-65400000D03*
X87355000Y-65800000D03*
X84645000Y-65800000D03*
X87355000Y-66200000D03*
X84645000Y-66200000D03*
X87355000Y-66600000D03*
X84645000Y-66600000D03*
X87355000Y-67000000D03*
X84645000Y-67000000D03*
X87355000Y-67400000D03*
X84645000Y-67400000D03*
X87355000Y-67800000D03*
X84645000Y-67800000D03*
X87355000Y-68200000D03*
X84645000Y-68200000D03*
X87355000Y-68600000D03*
X84645000Y-68600000D03*
X87355000Y-69000000D03*
X84645000Y-69000000D03*
X87355000Y-69400000D03*
X84645000Y-69400000D03*
X87355000Y-69800000D03*
X84645000Y-69800000D03*
X87355000Y-70200000D03*
X84645000Y-70200000D03*
X87355000Y-70600000D03*
X84645000Y-70600000D03*
X87355000Y-71000000D03*
X84645000Y-71000000D03*
X87355000Y-71400000D03*
X84645000Y-71400000D03*
X87355000Y-71800000D03*
X84645000Y-71800000D03*
%TD*%
%TO.C,Module2*%
X23455000Y-30700000D03*
X20745000Y-30700000D03*
X23455000Y-31100000D03*
X20745000Y-31100000D03*
X23455000Y-31500000D03*
X20745000Y-31500000D03*
X23455000Y-31900000D03*
X20745000Y-31900000D03*
X23455000Y-32300000D03*
X20745000Y-32300000D03*
X23455000Y-32700000D03*
X20745000Y-32700000D03*
X23455000Y-33100000D03*
X20745000Y-33100000D03*
X23455000Y-33500000D03*
X20745000Y-33500000D03*
X23455000Y-33900000D03*
X20745000Y-33900000D03*
X23455000Y-34300000D03*
X20745000Y-34300000D03*
X23455000Y-34700000D03*
X20745000Y-34700000D03*
X23455000Y-35100000D03*
X20745000Y-35100000D03*
X23455000Y-35500000D03*
X20745000Y-35500000D03*
X23455000Y-35900000D03*
X20745000Y-35900000D03*
X23455000Y-36300000D03*
X20745000Y-36300000D03*
X23455000Y-36700000D03*
X20745000Y-36700000D03*
X23455000Y-37100000D03*
X20745000Y-37100000D03*
X23455000Y-37500000D03*
X20745000Y-37500000D03*
X23455000Y-37900000D03*
X20745000Y-37900000D03*
X23455000Y-38300000D03*
X20745000Y-38300000D03*
X23455000Y-38700000D03*
X20745000Y-38700000D03*
X23455000Y-39100000D03*
X20745000Y-39100000D03*
X23455000Y-39500000D03*
X20745000Y-39500000D03*
X23455000Y-39900000D03*
X20745000Y-39900000D03*
X23455000Y-40300000D03*
X20745000Y-40300000D03*
X23455000Y-40700000D03*
X20745000Y-40700000D03*
X23455000Y-41100000D03*
X20745000Y-41100000D03*
X23455000Y-41500000D03*
X20745000Y-41500000D03*
X23455000Y-41900000D03*
X20745000Y-41900000D03*
X23455000Y-42300000D03*
X20745000Y-42300000D03*
X23455000Y-42700000D03*
X20745000Y-42700000D03*
X23455000Y-43100000D03*
X20745000Y-43100000D03*
X23455000Y-43500000D03*
X20745000Y-43500000D03*
X23455000Y-43900000D03*
X20745000Y-43900000D03*
X23455000Y-44300000D03*
X20745000Y-44300000D03*
X23455000Y-44700000D03*
X20745000Y-44700000D03*
X23455000Y-45100000D03*
X20745000Y-45100000D03*
X23455000Y-45500000D03*
X20745000Y-45500000D03*
X23455000Y-45900000D03*
X20745000Y-45900000D03*
X23455000Y-46300000D03*
X20745000Y-46300000D03*
X23455000Y-46700000D03*
X20745000Y-46700000D03*
X23455000Y-47100000D03*
X20745000Y-47100000D03*
X23455000Y-47500000D03*
X20745000Y-47500000D03*
X23455000Y-47900000D03*
X20745000Y-47900000D03*
X23455000Y-48300000D03*
X20745000Y-48300000D03*
X23455000Y-48700000D03*
X20745000Y-48700000D03*
X23455000Y-49100000D03*
X20745000Y-49100000D03*
X23455000Y-49500000D03*
X20745000Y-49500000D03*
X23455000Y-49900000D03*
X20745000Y-49900000D03*
X23455000Y-50300000D03*
X20745000Y-50300000D03*
%TD*%
D10*
%TO.C,U4*%
X85385000Y-33500000D03*
X85385000Y-34000000D03*
D11*
X85385000Y-34500000D03*
D10*
X85385000Y-35000000D03*
X85385000Y-35500000D03*
X84615000Y-35500000D03*
X84615000Y-35000000D03*
D11*
X84615000Y-34500000D03*
D10*
X84615000Y-34000000D03*
X84615000Y-33500000D03*
%TD*%
M02*
