M48
; DRILL file {KiCad (5.99.0-10407-g1e8b23402c)} date Tue Jul  6 19:16:12 2021
; FORMAT={-:-/ absolute / inch / decimal}
; #@! TF.CreationDate,2021-07-06T19:16:12-06:00
; #@! TF.GenerationSoftware,Kicad,Pcbnew,(5.99.0-10407-g1e8b23402c)
; #@! TF.FileFunction,MixedPlating,1,4
FMAT,2
INCH
; #@! TA.AperFunction,Plated,PTH,ViaDrill
T1C0.0157
; #@! TA.AperFunction,Plated,PTH,ComponentDrill
T2C0.0157
; #@! TA.AperFunction,Plated,PTH,ComponentDrill
T3C0.0300
; #@! TA.AperFunction,Plated,PTH,ComponentDrill
T4C0.0354
; #@! TA.AperFunction,Plated,PTH,ComponentDrill
T5C0.0402
; #@! TA.AperFunction,Plated,PTH,ComponentDrill
T6C0.0669
; #@! TA.AperFunction,Plated,PTH,ComponentDrill
T7C0.0906
; #@! TA.AperFunction,NonPlated,NPTH,ComponentDrill
T8C0.0256
; #@! TA.AperFunction,NonPlated,NPTH,ComponentDrill
T9C0.1063
; #@! TA.AperFunction,NonPlated,NPTH,ComponentDrill
T10C0.1260
%
G90
G05
T1
X0.8169Y-2.3228
X0.8268Y-2.4213
X0.8268Y-2.5787
X0.8465Y-2.3819
X0.8661Y-2.3228
X0.9055Y-2.5787
X0.9291Y-2.2402
X1.1024Y-2.7035
X1.1516Y-2.7035
X1.1693Y-2.8189
X1.185Y-2.6811
X1.2244Y-2.6811
X1.2677Y-2.6811
X1.3091Y-2.7035
X1.3583Y-2.7035
X1.4173Y-2.6772
X1.4567Y-2.7165
X1.4567Y-2.8228
X1.4764Y-2.8937
X1.5945Y-2.8346
X1.6063Y-2.7047
X1.6142Y-2.8701
X1.6732Y-2.815
X1.9449Y-2.8091
X1.9799Y-2.7524
X2.0059Y-2.7815
X2.0079Y-2.9528
X2.0939Y-2.6772
X2.1187Y-2.649
X2.1197Y-2.7054
X2.1197Y-2.7404
X2.126Y-2.9528
X2.1457Y-2.7756
X2.2217Y-2.7949
X2.5664Y-2.9553
X2.5911Y-2.9305
X2.6496Y-2.811
X2.7362Y-2.8171
X2.7362Y-2.8522
X2.7835Y-2.8701
X2.8343Y-2.8591
X2.8343Y-2.8591
X2.8591Y-2.8343
X2.8591Y-2.8343
X2.9449Y-2.8642
X2.9843Y-2.8642
X3.0217Y-2.8898
X3.0551Y-2.8642
X3.1102Y-2.9331
X3.1299Y-2.9016
X3.2185Y-2.5197
X3.2264Y-2.5709
X3.2272Y-2.1482
X3.2283Y-2.2146
X3.2323Y-2.6063
X3.248Y-2.4252
X3.248Y-2.4843
X3.2519Y-2.1234
X3.2553Y-2.0695
X3.2677Y-2.5197
X3.2697Y-2.5768
X3.2736Y-2.6378
X3.2776Y-2.2933
X3.2801Y-2.0447
X3.2874Y-2.3819
X3.2972Y-2.1752
X3.2972Y-2.2441
X3.3189Y-1.122
X3.376Y-2.4409
X3.376Y-2.4803
X3.3858Y-2.3031
X3.3858Y-2.3425
X3.3858Y-2.3819
X3.3858Y-2.7165
X3.3858Y-2.7559
X3.3858Y-2.7953
X3.4001Y-2.6317
X3.4004Y-2.5935
X3.4035Y-2.5551
X3.4252Y-1.0512
X3.4252Y-1.5453
X3.4252Y-1.6732
X3.4252Y-1.7323
X3.4744Y-2.185
X3.4744Y-2.2441
X3.4843Y-1.5453
X3.4843Y-1.6732
X3.5079Y-2.6142
X3.5197Y-1.2913
X3.5197Y-1.3386
X3.5276Y-1.8898
X3.5433Y-1.5551
X3.563Y-2.5984
X3.563Y-2.6378
X3.563Y-2.6772
X3.5748Y-1.8858
X3.5821Y-1.9286
X3.5827Y-1.5354
X3.5827Y-1.5748
X3.5827Y-1.7323
X3.5827Y-2.9528
X3.6024Y-1.4961
X3.6069Y-1.9533
X3.6102Y-1.8465
X3.6417Y-2.5591
X3.6516Y-2.7559
X3.6516Y-2.9528
X3.6535Y-2.4252
X3.6614Y-1.1417
X3.7008Y-1.7323
X3.7047Y-2.252
X3.7205Y-1.378
X3.7402Y-2.6575
X3.7402Y-2.8543
X3.7756Y-1.8465
X3.7795Y-1.2205
X3.8386Y-2.5591
X3.8386Y-2.7559
X3.8386Y-2.9528
X3.8858Y-2.4252
X3.9055Y-2.4764
X3.937Y-2.6575
X3.937Y-2.8543
X3.9448Y-2.4754
X3.9843Y-1.8858
X3.9921Y-2.4764
X4.0354Y-2.5591
X4.0354Y-2.7559
X4.063Y-2.4764
T2
X1.748Y-2.7945
X1.7638Y-2.763
X1.7795Y-2.7945
X1.7953Y-2.763
X1.811Y-2.7945
X1.8268Y-2.763
X1.8425Y-2.7945
X1.8583Y-2.763
X1.874Y-2.7945
X2.2795Y-2.7945
X2.2953Y-2.763
X2.311Y-2.7945
X2.3268Y-2.763
X2.3425Y-2.7945
X2.3583Y-2.763
X2.374Y-2.7945
X2.3898Y-2.763
X2.4055Y-2.7945
T3
X1.0583Y-2.7713
X1.0583Y-2.9516
X1.3984Y-2.7713
X1.3984Y-2.9516
X1.689Y-2.7402
X1.689Y-2.9439
X1.9331Y-2.7402
X1.9331Y-2.9439
X2.2205Y-2.7402
X2.2205Y-2.9439
X2.4646Y-2.7402
X2.4646Y-2.9439
T4
X3.4689Y-1.0159
X3.4689Y-1.1159
X3.4689Y-1.2159
X3.4689Y-1.3159
X3.4689Y-1.4159
X3.5689Y-0.9659
X3.5689Y-1.0659
X3.5689Y-1.1659
X3.5689Y-1.2659
X3.5689Y-1.3659
X3.6681Y-0.9659
X3.6681Y-1.4159
X3.7181Y-1.0659
X3.7181Y-1.3159
T5
X3.9787Y-0.9299
X3.9787Y-1.0299
X3.9787Y-1.352
X3.9787Y-1.452
T6
X3.6988Y-0.8809
X3.6988Y-1.501
T7
X3.8465Y-1.6654
X3.8465Y-2.1929
T8
X1.1146Y-2.7909
X1.3421Y-2.7909
T9
X0.9252Y-0.9252
X0.9252Y-2.8543
X3.2087Y-0.9252
T10
X3.8189Y-0.9659
X3.8189Y-1.4159
T0
M30
