%TF.GenerationSoftware,KiCad,Pcbnew,(5.99.0-10407-g1e8b23402c)*%
%TF.CreationDate,2021-06-15T11:20:33-06:00*%
%TF.ProjectId,mezzanine,6d657a7a-616e-4696-9e65-2e6b69636164,rev?*%
%TF.SameCoordinates,Original*%
%TF.FileFunction,Paste,Top*%
%TF.FilePolarity,Positive*%
%FSLAX46Y46*%
G04 Gerber Fmt 4.6, Leading zero omitted, Abs format (unit mm)*
G04 Created by KiCad (PCBNEW (5.99.0-10407-g1e8b23402c)) date 2021-06-15 11:20:33*
%MOMM*%
%LPD*%
G01*
G04 APERTURE LIST*
G04 Aperture macros list*
%AMRoundRect*
0 Rectangle with rounded corners*
0 $1 Rounding radius*
0 $2 $3 $4 $5 $6 $7 $8 $9 X,Y pos of 4 corners*
0 Add a 4 corners polygon primitive as box body*
4,1,4,$2,$3,$4,$5,$6,$7,$8,$9,$2,$3,0*
0 Add four circle primitives for the rounded corners*
1,1,$1+$1,$2,$3*
1,1,$1+$1,$4,$5*
1,1,$1+$1,$6,$7*
1,1,$1+$1,$8,$9*
0 Add four rect primitives between the rounded corners*
20,1,$1+$1,$2,$3,$4,$5,0*
20,1,$1+$1,$4,$5,$6,$7,0*
20,1,$1+$1,$6,$7,$8,$9,0*
20,1,$1+$1,$8,$9,$2,$3,0*%
G04 Aperture macros list end*
%ADD10C,1.150000*%
%ADD11C,0.300000*%
%ADD12C,1.000000*%
%ADD13RoundRect,0.250000X1.025000X-0.787500X1.025000X0.787500X-1.025000X0.787500X-1.025000X-0.787500X0*%
%ADD14RoundRect,0.150000X-0.587500X-0.150000X0.587500X-0.150000X0.587500X0.150000X-0.587500X0.150000X0*%
%ADD15RoundRect,0.200000X-0.275000X0.200000X-0.275000X-0.200000X0.275000X-0.200000X0.275000X0.200000X0*%
%ADD16RoundRect,0.225000X-0.250000X0.225000X-0.250000X-0.225000X0.250000X-0.225000X0.250000X0.225000X0*%
%ADD17RoundRect,0.200000X0.275000X-0.200000X0.275000X0.200000X-0.275000X0.200000X-0.275000X-0.200000X0*%
%ADD18R,0.400000X0.650000*%
%ADD19RoundRect,0.225000X0.250000X-0.225000X0.250000X0.225000X-0.250000X0.225000X-0.250000X-0.225000X0*%
%ADD20R,0.550000X0.300000*%
%ADD21R,0.550000X0.400000*%
%ADD22RoundRect,0.225000X0.225000X0.250000X-0.225000X0.250000X-0.225000X-0.250000X0.225000X-0.250000X0*%
%ADD23R,0.250000X1.000000*%
%ADD24RoundRect,0.225000X-0.225000X-0.250000X0.225000X-0.250000X0.225000X0.250000X-0.225000X0.250000X0*%
%ADD25R,0.300000X1.150000*%
%ADD26R,0.600000X1.150000*%
%ADD27RoundRect,0.218750X0.256250X-0.218750X0.256250X0.218750X-0.256250X0.218750X-0.256250X-0.218750X0*%
%ADD28RoundRect,0.200000X-0.200000X-0.275000X0.200000X-0.275000X0.200000X0.275000X-0.200000X0.275000X0*%
%ADD29RoundRect,0.150000X-0.150000X0.512500X-0.150000X-0.512500X0.150000X-0.512500X0.150000X0.512500X0*%
%ADD30R,2.800000X1.000000*%
G04 APERTURE END LIST*
D10*
%TO.C,J3*%
X42900000Y-69375000D02*
X42900000Y-69825000D01*
X49100000Y-74550000D02*
X49100000Y-75000000D01*
X49100000Y-69375000D02*
X49100000Y-69825000D01*
X42900000Y-74550000D02*
X42900000Y-75000000D01*
D11*
X44950000Y-70180000D02*
G75*
G03*
X44950000Y-70180000I-150000J0D01*
G01*
X46150000Y-70980000D02*
G75*
G03*
X46150000Y-70980000I-150000J0D01*
G01*
X47350000Y-70180000D02*
G75*
G03*
X47350000Y-70180000I-150000J0D01*
G01*
X45750000Y-70180000D02*
G75*
G03*
X45750000Y-70180000I-150000J0D01*
G01*
X47750000Y-70980000D02*
G75*
G03*
X47750000Y-70980000I-150000J0D01*
G01*
X44550000Y-70980000D02*
G75*
G03*
X44550000Y-70980000I-150000J0D01*
G01*
X46550000Y-70180000D02*
G75*
G03*
X46550000Y-70180000I-150000J0D01*
G01*
X46950000Y-70980000D02*
G75*
G03*
X46950000Y-70980000I-150000J0D01*
G01*
X45350000Y-70980000D02*
G75*
G03*
X45350000Y-70980000I-150000J0D01*
G01*
D12*
%TO.C,J2*%
X26880000Y-74570000D02*
X26880000Y-75370000D01*
X35520000Y-69990000D02*
X35520000Y-70790000D01*
X35520000Y-74570000D02*
X35520000Y-75370000D01*
X26880000Y-69990000D02*
X26880000Y-70790000D01*
D10*
%TO.C,J4*%
X56400000Y-69375000D02*
X56400000Y-69825000D01*
X62600000Y-74550000D02*
X62600000Y-75000000D01*
X62600000Y-69375000D02*
X62600000Y-69825000D01*
X56400000Y-74550000D02*
X56400000Y-75000000D01*
D11*
X58450000Y-70180000D02*
G75*
G03*
X58450000Y-70180000I-150000J0D01*
G01*
X59650000Y-70980000D02*
G75*
G03*
X59650000Y-70980000I-150000J0D01*
G01*
X60850000Y-70180000D02*
G75*
G03*
X60850000Y-70180000I-150000J0D01*
G01*
X59250000Y-70180000D02*
G75*
G03*
X59250000Y-70180000I-150000J0D01*
G01*
X61250000Y-70980000D02*
G75*
G03*
X61250000Y-70980000I-150000J0D01*
G01*
X58050000Y-70980000D02*
G75*
G03*
X58050000Y-70980000I-150000J0D01*
G01*
X60050000Y-70180000D02*
G75*
G03*
X60050000Y-70180000I-150000J0D01*
G01*
X60450000Y-70980000D02*
G75*
G03*
X60450000Y-70980000I-150000J0D01*
G01*
X58850000Y-70980000D02*
G75*
G03*
X58850000Y-70980000I-150000J0D01*
G01*
%TD*%
D13*
%TO.C,C2*%
X89250000Y-52112500D03*
X89250000Y-45887500D03*
%TD*%
D14*
%TO.C,U6*%
X51062500Y-69620000D03*
X51062500Y-71520000D03*
X52937500Y-70570000D03*
%TD*%
D15*
%TO.C,R3*%
X38250000Y-68675000D03*
X38250000Y-70325000D03*
%TD*%
D16*
%TO.C,C7*%
X85000000Y-29725000D03*
X85000000Y-31275000D03*
%TD*%
D15*
%TO.C,R4*%
X88500000Y-40000000D03*
X88500000Y-41650000D03*
%TD*%
D17*
%TO.C,R7*%
X23000000Y-63825000D03*
X23000000Y-62175000D03*
%TD*%
D18*
%TO.C,U7*%
X22650000Y-58050000D03*
X21350000Y-58050000D03*
X22000000Y-58050000D03*
X21350000Y-59950000D03*
X22650000Y-59950000D03*
%TD*%
D19*
%TO.C,C4*%
X97000000Y-60275000D03*
X97000000Y-58725000D03*
%TD*%
%TO.C,C3*%
X94000000Y-60275000D03*
X94000000Y-58725000D03*
%TD*%
D20*
%TO.C,U3*%
X85385000Y-27500000D03*
X85385000Y-27000000D03*
D21*
X85385000Y-26500000D03*
D20*
X85385000Y-26000000D03*
X85385000Y-25500000D03*
X84615000Y-27000000D03*
X84615000Y-25500000D03*
X84615000Y-26000000D03*
X84615000Y-27500000D03*
D21*
X84615000Y-26500000D03*
%TD*%
D19*
%TO.C,C5*%
X95500000Y-60275000D03*
X95500000Y-58725000D03*
%TD*%
D17*
%TO.C,R6*%
X23000000Y-67825000D03*
X23000000Y-66175000D03*
%TD*%
D22*
%TO.C,C1*%
X91275000Y-56500000D03*
X89725000Y-56500000D03*
%TD*%
D23*
%TO.C,J3*%
X47800000Y-68920000D03*
X47400000Y-68920000D03*
X47000000Y-68920000D03*
X46600000Y-68920000D03*
X46200000Y-68920000D03*
X45800000Y-68920000D03*
X45400000Y-68920000D03*
X45000000Y-68920000D03*
X44600000Y-68920000D03*
X44200000Y-68920000D03*
%TD*%
D24*
%TO.C,C8*%
X38225000Y-73500000D03*
X39775000Y-73500000D03*
%TD*%
D25*
%TO.C,J2*%
X29950000Y-69815000D03*
X30950000Y-69815000D03*
X31450000Y-69815000D03*
X32450000Y-69815000D03*
X32950000Y-69815000D03*
X31950000Y-69815000D03*
X30450000Y-69815000D03*
X29450000Y-69815000D03*
D26*
X34400000Y-69815000D03*
X28000000Y-69815000D03*
X33600000Y-69815000D03*
X28800000Y-69815000D03*
%TD*%
D15*
%TO.C,R5*%
X87000000Y-40000000D03*
X87000000Y-41650000D03*
%TD*%
D27*
%TO.C,D2*%
X21000000Y-63787500D03*
X21000000Y-62212500D03*
%TD*%
D28*
%TO.C,R1*%
X89675000Y-62500000D03*
X91325000Y-62500000D03*
%TD*%
D23*
%TO.C,J4*%
X61300000Y-68920000D03*
X60900000Y-68920000D03*
X60500000Y-68920000D03*
X60100000Y-68920000D03*
X59700000Y-68920000D03*
X59300000Y-68920000D03*
X58900000Y-68920000D03*
X58500000Y-68920000D03*
X58100000Y-68920000D03*
X57700000Y-68920000D03*
%TD*%
D29*
%TO.C,U1*%
X91450000Y-58362500D03*
X90500000Y-58362500D03*
X89550000Y-58362500D03*
X89550000Y-60637500D03*
X90500000Y-60637500D03*
X91450000Y-60637500D03*
%TD*%
D15*
%TO.C,R2*%
X39750000Y-68675000D03*
X39750000Y-70325000D03*
%TD*%
D27*
%TO.C,D1*%
X21000000Y-67787500D03*
X21000000Y-66212500D03*
%TD*%
D30*
%TO.C,J1*%
X93800000Y-52500000D03*
X93800000Y-50000000D03*
X93800000Y-48000000D03*
X93800000Y-45500000D03*
%TD*%
D22*
%TO.C,C9*%
X39775000Y-72000000D03*
X38225000Y-72000000D03*
%TD*%
D19*
%TO.C,C6*%
X98500000Y-60275000D03*
X98500000Y-58725000D03*
%TD*%
M02*
