%TF.GenerationSoftware,KiCad,Pcbnew,(5.99.0-10407-g1e8b23402c)*%
%TF.CreationDate,2021-06-04T13:11:51-06:00*%
%TF.ProjectId,mezzanine,6d657a7a-616e-4696-9e65-2e6b69636164,rev?*%
%TF.SameCoordinates,Original*%
%TF.FileFunction,Legend,Top*%
%TF.FilePolarity,Positive*%
%FSLAX46Y46*%
G04 Gerber Fmt 4.6, Leading zero omitted, Abs format (unit mm)*
G04 Created by KiCad (PCBNEW (5.99.0-10407-g1e8b23402c)) date 2021-06-04 13:11:51*
%MOMM*%
%LPD*%
G01*
G04 APERTURE LIST*
%ADD10C,0.120000*%
G04 APERTURE END LIST*
D10*
%TO.C,U6*%
X52000000Y-72130000D02*
X52650000Y-72130000D01*
X52000000Y-69010000D02*
X52650000Y-69010000D01*
X52000000Y-69010000D02*
X50325000Y-69010000D01*
X52000000Y-72130000D02*
X51350000Y-72130000D01*
%TO.C,R3*%
X38772500Y-69262742D02*
X38772500Y-69737258D01*
X37727500Y-69262742D02*
X37727500Y-69737258D01*
%TO.C,C7*%
X84490000Y-30359420D02*
X84490000Y-30640580D01*
X85510000Y-30359420D02*
X85510000Y-30640580D01*
%TO.C,R4*%
X89022500Y-40587742D02*
X89022500Y-41062258D01*
X87977500Y-40587742D02*
X87977500Y-41062258D01*
%TO.C,R7*%
X23522500Y-63237258D02*
X23522500Y-62762742D01*
X22477500Y-63237258D02*
X22477500Y-62762742D01*
%TO.C,U7*%
X23160000Y-59700000D02*
X23160000Y-57800000D01*
X20840000Y-58300000D02*
X20840000Y-59700000D01*
%TO.C,C4*%
X97510000Y-59640580D02*
X97510000Y-59359420D01*
X96490000Y-59640580D02*
X96490000Y-59359420D01*
%TO.C,C3*%
X93490000Y-59640580D02*
X93490000Y-59359420D01*
X94510000Y-59640580D02*
X94510000Y-59359420D01*
%TO.C,U3*%
X84500000Y-25100000D02*
X85500000Y-25100000D01*
X84500000Y-27900000D02*
X85800000Y-27900000D01*
%TO.C,C5*%
X94990000Y-59640580D02*
X94990000Y-59359420D01*
X96010000Y-59640580D02*
X96010000Y-59359420D01*
%TO.C,R6*%
X22477500Y-67237258D02*
X22477500Y-66762742D01*
X23522500Y-67237258D02*
X23522500Y-66762742D01*
%TO.C,C1*%
X90640580Y-57010000D02*
X90359420Y-57010000D01*
X90640580Y-55990000D02*
X90359420Y-55990000D01*
%TO.C,C8*%
X38859420Y-74010000D02*
X39140580Y-74010000D01*
X38859420Y-72990000D02*
X39140580Y-72990000D01*
%TO.C,R5*%
X86477500Y-40587742D02*
X86477500Y-41062258D01*
X87522500Y-40587742D02*
X87522500Y-41062258D01*
%TO.C,D2*%
X21735000Y-64485000D02*
X21735000Y-62200000D01*
X20265000Y-62200000D02*
X20265000Y-64485000D01*
X20265000Y-64485000D02*
X21735000Y-64485000D01*
%TO.C,R1*%
X90262742Y-63022500D02*
X90737258Y-63022500D01*
X90262742Y-61977500D02*
X90737258Y-61977500D01*
%TO.C,U1*%
X88940000Y-59500000D02*
X88940000Y-60300000D01*
X88940000Y-59500000D02*
X88940000Y-58700000D01*
X92060000Y-59500000D02*
X92060000Y-60300000D01*
X92060000Y-59500000D02*
X92060000Y-57700000D01*
%TO.C,R2*%
X40272500Y-69262742D02*
X40272500Y-69737258D01*
X39227500Y-69262742D02*
X39227500Y-69737258D01*
%TO.C,U5*%
X107900000Y-38150000D02*
X108150000Y-38150000D01*
X95570000Y-22130000D02*
X108020000Y-22130000D01*
X108020000Y-22130000D02*
X108020000Y-38370000D01*
X107750000Y-38250000D02*
X107750000Y-38500000D01*
X95570000Y-38370000D02*
X108020000Y-38370000D01*
X86380000Y-22130000D02*
X92290000Y-22130000D01*
X86380000Y-38370000D02*
X92290000Y-38370000D01*
X86380000Y-38370000D02*
X86380000Y-22130000D01*
%TO.C,D1*%
X21735000Y-68485000D02*
X21735000Y-66200000D01*
X20265000Y-66200000D02*
X20265000Y-68485000D01*
X20265000Y-68485000D02*
X21735000Y-68485000D01*
%TO.C,C9*%
X39140580Y-72510000D02*
X38859420Y-72510000D01*
X39140580Y-71490000D02*
X38859420Y-71490000D01*
%TO.C,C2*%
X88465000Y-50710000D02*
X90035000Y-50710000D01*
X88465000Y-48000000D02*
X88465000Y-50710000D01*
X90035000Y-50710000D02*
X90035000Y-48000000D01*
%TO.C,C6*%
X97990000Y-59640580D02*
X97990000Y-59359420D01*
X99010000Y-59640580D02*
X99010000Y-59359420D01*
%TD*%
M02*
